<svg width="30" height="29" viewBox="0 0 30 29" fill="none" xmlns="http://www.w3.org/2000/svg">
<rect x="1" y="1" width="28" height="27" rx="7" fill="white"/>
<rect x="1" y="1" width="28" height="27" rx="7" stroke="#272B4F" stroke-width="2"/>
<path d="M18.875 20.5H11.1406V19.1172L14.1016 16.1172C14.6745 15.5339 15.1458 15.0312 15.5156 14.6094C15.8854 14.1823 16.1589 13.7786 16.3359 13.3984C16.5182 13.0182 16.6094 12.6042 16.6094 12.1562C16.6094 11.6042 16.4505 11.1875 16.1328 10.9062C15.8151 10.6198 15.3958 10.4766 14.875 10.4766C14.3802 10.4766 13.9219 10.5755 13.5 10.7734C13.0833 10.9661 12.651 11.2422 12.2031 11.6016L11.1953 10.3906C11.513 10.1198 11.8516 9.8724 12.2109 9.64844C12.5755 9.42448 12.9818 9.2474 13.4297 9.11719C13.8776 8.98177 14.388 8.91406 14.9609 8.91406C15.6849 8.91406 16.3099 9.04427 16.8359 9.30469C17.362 9.5599 17.7656 9.91667 18.0469 10.375C18.3333 10.8333 18.4766 11.3672 18.4766 11.9766C18.4766 12.5911 18.3542 13.1589 18.1094 13.6797C17.8646 14.2005 17.5156 14.7161 17.0625 15.2266C16.6094 15.7318 16.0703 16.2812 15.4453 16.875L13.4688 18.8047V18.8906H18.875V20.5Z" fill="#272B4F"/>
</svg>
