<svg width="50" height="50" viewBox="0 0 50 50" fill="none" xmlns="http://www.w3.org/2000/svg">
<rect x="1" y="1" width="48" height="48" rx="11" stroke="#0057DA" stroke-width="2"/>
<rect x="5" y="5" width="40" height="40" rx="8" fill="#0057DA"/>
<path d="M19.1995 33.477V30.7582L26.1576 24.5835C26.6798 24.1227 27.0485 23.6888 27.2635 23.2818C27.4785 22.8747 27.5861 22.4946 27.5861 22.1413C27.5861 21.6344 27.4824 21.1851 27.275 20.7934C27.0677 20.3941 26.7758 20.083 26.3995 19.8603C26.0232 19.6299 25.5816 19.5147 25.0747 19.5147C24.5448 19.5147 24.0763 19.6376 23.6693 19.8834C23.2699 20.1214 22.9589 20.4402 22.7361 20.8395C22.5134 21.2312 22.4097 21.6574 22.4251 22.1182H19.1995C19.1995 20.9816 19.4491 19.9986 19.9483 19.1691C20.4475 18.3397 21.1425 17.6984 22.0334 17.2453C22.9243 16.7922 23.9611 16.5656 25.1438 16.5656C26.2267 16.5656 27.1944 16.8037 28.0469 17.2798C28.907 17.7483 29.5829 18.405 30.0744 19.2498C30.5659 20.0946 30.8117 21.0738 30.8117 22.1874C30.8117 23.0091 30.6965 23.6926 30.4661 24.2379C30.2357 24.7755 29.8939 25.2747 29.4408 25.7355C28.9877 26.1886 28.4309 26.7032 27.7704 27.2792L23.2776 31.219L23.0241 30.5278H30.8117V33.477H19.1995Z" fill="#EEF0F2"/>
</svg>
