<svg width="40" height="40" viewBox="0 0 40 40" fill="none" xmlns="http://www.w3.org/2000/svg">
<rect width="40" height="40" rx="8" fill="#272B4F"/>
<path d="M14.1995 28.477V25.7582L21.1576 19.5835C21.6798 19.1227 22.0485 18.6888 22.2635 18.2818C22.4785 17.8747 22.5861 17.4946 22.5861 17.1413C22.5861 16.6344 22.4824 16.1851 22.275 15.7934C22.0677 15.3941 21.7758 15.083 21.3995 14.8603C21.0232 14.6299 20.5816 14.5147 20.0747 14.5147C19.5448 14.5147 19.0763 14.6376 18.6693 14.8834C18.2699 15.1214 17.9589 15.4402 17.7361 15.8395C17.5134 16.2312 17.4097 16.6574 17.4251 17.1182H14.1995C14.1995 15.9816 14.4491 14.9986 14.9483 14.1691C15.4475 13.3397 16.1425 12.6984 17.0334 12.2453C17.9243 11.7922 18.9611 11.5656 20.1438 11.5656C21.2267 11.5656 22.1944 11.8037 23.0469 12.2798C23.907 12.7483 24.5829 13.405 25.0744 14.2498C25.5659 15.0946 25.8117 16.0738 25.8117 17.1874C25.8117 18.0091 25.6965 18.6926 25.4661 19.2379C25.2357 19.7755 24.8939 20.2747 24.4408 20.7355C23.9877 21.1886 23.4309 21.7032 22.7704 22.2792L18.2776 26.219L18.0241 25.5278H25.8117V28.477H14.1995Z" fill="#EEF0F2"/>
</svg>
