<svg width="44" height="44" viewBox="0 0 44 44" fill="none" xmlns="http://www.w3.org/2000/svg">
<rect x="1" y="1" width="42" height="42" rx="9" fill="#EEF0F2" />
<rect x="1" y="1" width="42" height="42" rx="9" stroke="#7D7E80" stroke-width="2"/>
<path d="M22 36.1666C23.8976 36.1666 25.5046 34.9231 26.0508 33.2065C26.1754 32.8149 26.6949 32.5997 27.0599 32.7885C28.6599 33.6162 30.6756 33.3591 32.0174 32.0174C33.3591 30.6756 33.6162 28.6599 32.7885 27.0599C32.5997 26.6949 32.8149 26.1753 33.2065 26.0507C34.9231 25.5046 36.1667 23.8975 36.1667 22C36.1667 20.1025 34.9232 18.4954 33.2066 17.9492C32.815 17.8247 32.5998 17.3051 32.7886 16.9401C33.6162 15.3401 33.3592 13.3244 32.0174 11.9826C30.6757 10.6409 28.6599 10.3838 27.06 11.2115C26.695 11.4003 26.1754 11.1851 26.0508 10.7935C25.5047 9.07687 23.8976 7.83331 22 7.83331C20.1025 7.83331 18.4954 9.07686 17.9493 10.7934C17.8247 11.185 17.3051 11.4002 16.9402 11.2114C15.3402 10.3838 13.3245 10.6408 11.9827 11.9826C10.6409 13.3244 10.3839 15.3401 11.2115 16.9401C11.4004 17.3051 11.1851 17.8247 10.7935 17.9492C9.07693 18.4954 7.83337 20.1024 7.83337 22C7.83337 23.8975 9.07692 25.5046 10.7935 26.0507C11.1851 26.1753 11.4003 26.6949 11.2115 27.0599C10.3839 28.6599 10.6409 30.6755 11.9827 32.0173C13.3244 33.3591 15.3401 33.6161 16.9401 32.7885C17.3051 32.5997 17.8247 32.8149 17.9493 33.2065C18.4954 34.9231 20.1025 36.1666 22 36.1666Z" stroke="#272B4F" stroke-width="2" stroke-linecap="round"/>
<path d="M16.6667 23.0416L19.958 26.3329C20.0963 26.4712 20.3205 26.4712 20.4588 26.3329L28.0001 18.7916" stroke="#272B4F" stroke-width="2" stroke-linecap="round"/>
</svg>
