<svg width="273" height="193" viewBox="0 0 273 193" fill="none" xmlns="http://www.w3.org/2000/svg">
<path d="M235.629 132.132C235.629 132.132 235.728 137.667 232.646 145.625C228.384 156.662 217.991 172.382 192.68 184.533C158.648 200.875 89.6998 190.067 72.8152 170.188C67.8317 164.326 64.0286 158.594 61.3729 152.306C57.8648 144.053 56.3567 134.883 56.8485 123.355C57.2419 113.955 58.9468 103.017 61.9303 89.7529C62.2581 88.3119 62.6188 86.8709 62.9794 85.4954C73.5037 46.3259 102.945 26.0862 134.682 22.1234C141.96 21.2064 151.009 21.7304 160.747 23.7937C183.434 28.6407 209.597 42.1011 224.613 66.2054C232.187 78.3558 236.908 93.2245 236.908 111.041C246.58 119.851 267.858 123.519 271.333 123.191C274.776 122.896 270.349 134.785 235.629 132.132Z" fill="#FECA44"/>
<path d="M253.17 29.8852C250.121 34.765 245.235 33.455 245.006 33.3895C248.842 36.4025 241.662 45.4416 234.646 45.5399C227.63 45.6381 227.4 42.0355 227.4 42.0355C224.318 44.3936 220.876 43.2473 219.4 40.2671C219.368 44.3281 217.925 48.0289 215.761 50.5506C224.351 48.7821 232.679 53.8257 231.367 59.7535C230.613 63.1596 227.892 65.1901 224.613 66.1398C220.613 67.2861 215.794 66.7949 212.614 65.1573L209.925 103.377C210.056 103.344 210.187 103.279 210.319 103.246C215.007 101.936 217.695 108.453 211.925 109.927C211.007 110.156 210.187 110.124 209.466 109.894L208.876 118.246L232.679 145.527C228.416 156.564 218.023 172.284 192.713 184.434C158.681 200.777 89.7325 189.969 72.8479 170.089C67.8644 164.227 64.0613 158.496 61.4056 152.208C63.2416 142.874 64.9137 126.957 64.9137 126.957C62.1597 126.957 59.209 125.32 56.8812 123.289C54.5534 121.226 52.8485 118.737 52.5534 117.001C48.947 117.034 43.9964 115.986 41.3735 114.905C37.6031 113.333 35.2753 108.683 40.4555 104.13L55.2747 93.2899C55.1435 93.0606 55.0452 92.7987 55.0124 92.5039C54.619 89.4581 58.3565 86.7071 63.0121 85.4298C64.2908 85.0695 65.635 84.8403 66.9792 84.742L74.2904 79.4037C92.1259 91.2266 96.9782 114.774 97.2077 166.159C116.486 141.695 145.436 112.547 152.911 106.095C149.862 105.342 148.419 101.183 152.878 98.923C153.304 98.6937 153.73 98.5627 154.124 98.4972C155.042 83.4648 157.075 49.2079 156.648 48.7822C156.091 48.2254 132.616 41.8718 133.174 36.73C133.403 34.7322 148.714 28.4442 160.779 23.7936C163.402 22.7783 165.861 21.8613 167.992 21.0426C167.795 20.7151 167.632 20.3876 167.5 19.9946C166.287 16.4248 169.992 14.5908 169.992 14.5908C169.992 14.5908 163.435 10.759 165.566 4.92939C167.73 -0.900174 182.484 -0.638179 190.844 9.54719C190.844 9.54719 191.598 5.71539 196.975 7.0254C202.352 8.33542 202.811 17.7675 202.811 17.7675C202.811 17.7675 207.401 15.3768 211.958 19.8308C211.892 19.6671 209.565 13.9357 214.482 9.71094C220.023 4.96213 227.007 10.759 227.007 10.759C227.007 10.759 230.187 2.1456 236.285 2.44035C251.137 3.09536 245.334 20.5186 245.334 20.5186C252.514 17.7348 256.284 24.9071 253.17 29.8852Z" fill="white"/>
<path d="M52.2911 118.246C48.2584 118.246 43.1437 116.969 40.8815 116.052C38.4553 115.037 36.7176 113.006 36.3242 110.713C36.0291 108.945 36.357 106.227 39.6356 103.345C40.0946 102.919 40.8487 102.984 41.2421 103.443C41.6683 103.934 41.6028 104.655 41.1438 105.048C39.1766 106.783 38.2914 108.585 38.5864 110.32C38.8487 111.827 40.0618 113.235 41.7339 113.923C45.8322 115.626 53.6353 116.674 55.4386 115.397C57.3402 114.054 55.7336 111.008 55.7008 110.975C55.4058 110.419 55.6025 109.731 56.1598 109.403C56.7172 109.109 57.4057 109.305 57.7336 109.862C58.6516 111.532 59.6352 115.233 56.7828 117.264C55.7992 117.951 54.1599 118.246 52.2911 118.246Z" fill="#272B4F"/>
<path d="M72.0939 85.6262L75.8971 74.8186C64.6188 73.9016 47.8653 60.0482 41.7999 54.9064C35.7346 49.7645 26.8496 40.922 9.70264 41.1185C9.70264 41.1185 -1.60845 61.0962 0.194771 78.3229C0.194771 78.3229 9.44033 80.5827 18.1613 86.2812C33.1117 96.0408 40.7507 115.298 63.0451 111.499L68.2908 95.8116" fill="#8EE6CB"/>
<path d="M168.32 33.0621C167.664 32.6691 167.467 31.8176 167.861 31.1953L169.697 28.215C170.09 27.56 170.943 27.3634 171.566 27.7565C172.221 28.1495 172.418 29.001 172.025 29.6233L170.189 32.6036C169.828 33.2586 168.975 33.4551 168.32 33.0621Z" fill="#272B4F"/>
<path d="M177.631 36.9268C176.975 36.5338 176.778 35.6823 177.172 35.0601L179.008 32.0797C179.401 31.4247 180.254 31.2282 180.877 31.6212C181.532 32.0142 181.729 32.8657 181.336 33.488L179.5 36.4683C179.139 37.0906 178.287 37.3199 177.631 36.9268Z" fill="#272B4F"/>
<path d="M42.2259 80.812C41.8325 81.8273 41.2751 82.5805 40.5866 83.0391C39.8981 83.4976 39.0129 83.6613 37.9309 83.5631L36.8818 86.2159C36.849 86.2814 36.7834 86.3469 36.7178 86.3796C36.6523 86.4124 36.5539 86.4124 36.4883 86.3796L32.9802 84.9714C32.9146 84.9386 32.849 84.8731 32.8163 84.8076C32.7835 84.7421 32.7835 84.6438 32.8163 84.5783L33.7671 82.2203C33.1113 81.9255 32.554 81.6308 32.0294 81.3688C31.9638 81.336 31.931 81.2705 31.8982 81.205C31.8654 81.1395 31.8654 81.0412 31.8982 80.9757L33.308 78.2574C33.3408 78.1592 33.4064 78.1264 33.5048 78.0937C33.6031 78.0609 33.6687 78.0937 33.7671 78.1592C33.9638 78.2902 34.1605 78.4212 34.39 78.5522C34.5867 78.6832 34.8818 78.8469 35.2424 79.0434C35.6031 79.2399 35.931 79.4037 36.226 79.502C36.5539 79.633 36.8817 79.7312 37.144 79.7312C37.4063 79.7312 37.6358 79.6985 37.7998 79.5675C37.9637 79.4692 38.062 79.371 38.1604 79.2727C38.2588 79.1745 38.2915 79.0762 38.3243 79.0107C38.3571 78.9124 38.3899 78.8142 38.3899 78.6832C38.3899 78.5522 38.3899 78.3884 38.3243 78.1592C38.2915 77.9299 38.1604 77.7006 37.9309 77.4059C37.7342 77.1439 37.4391 76.8819 37.0785 76.6199C36.6523 76.3251 36.2916 75.9649 35.9965 75.5718C35.6686 75.1461 35.4063 74.6876 35.2096 74.1636C35.0129 73.6396 34.9146 73.05 34.9146 72.395C34.9146 71.74 35.0457 71.085 35.308 70.43C35.6687 69.513 36.226 68.8252 36.9473 68.3667C37.6686 67.9081 38.5539 67.7117 39.5702 67.7772L40.6522 65.0261C40.685 64.9606 40.7505 64.8951 40.8161 64.8623C40.8817 64.8296 40.98 64.8296 41.0456 64.8623L44.5537 66.2706C44.6193 66.3033 44.6849 66.3688 44.7177 66.4343C44.7504 66.4999 44.7504 66.5981 44.7177 66.6636L43.7669 69.0217C44.3898 69.3164 44.98 69.6112 45.5701 69.906C45.6357 69.9387 45.6685 70.0042 45.7012 70.0697C45.734 70.1352 45.734 70.2335 45.7012 70.299L44.2915 73.0173C44.2587 73.0828 44.1931 73.1483 44.0948 73.1811C43.9964 73.2138 43.9308 73.181 43.8652 73.1483C42.98 72.5588 42.1276 72.0675 41.3407 71.74C41.0128 71.609 40.7177 71.5107 40.4554 71.5107C40.1931 71.5107 39.9636 71.5435 39.7997 71.6745C39.6358 71.7727 39.5046 71.871 39.4391 71.9693C39.3735 72.0675 39.3079 72.1658 39.2751 72.264C39.2424 72.3623 39.2096 72.4605 39.2096 72.5915C39.2096 72.7225 39.2096 72.8863 39.2751 73.1155C39.3079 73.3448 39.4391 73.5741 39.6686 73.8688C39.8653 74.1308 40.1604 74.4256 40.521 74.6548C40.9145 74.9496 41.2751 75.3098 41.603 75.7356C41.9308 76.1614 42.1931 76.6199 42.3898 77.1439C42.5866 77.6679 42.6849 78.2574 42.6849 78.9125C42.6521 79.502 42.521 80.157 42.2259 80.812Z" fill="#272B4F"/>
<path d="M36.5869 86.9366C36.4885 86.9366 36.3902 86.9038 36.2918 86.871L32.7837 85.4628C32.587 85.3973 32.423 85.2335 32.3575 85.037C32.2591 84.8405 32.2591 84.644 32.3575 84.4475L33.1443 82.5152C32.6525 82.2859 32.1935 82.0567 31.8001 81.8274C31.6362 81.7291 31.505 81.5654 31.4394 81.3689C31.3738 81.1724 31.3739 80.9759 31.4722 80.8121C31.4722 80.8121 31.4722 80.7794 31.505 80.7794L32.9148 78.061C33.0132 77.8645 33.2099 77.7008 33.4394 77.668C33.6689 77.6025 33.8984 77.6681 34.0951 77.7991C34.2919 77.9301 34.4885 78.061 34.6853 78.1921C34.882 78.3231 35.1771 78.4868 35.5049 78.6506C35.8328 78.8143 36.1607 78.9781 36.423 79.1091C36.718 79.2401 36.9475 79.3056 37.177 79.3056C37.4065 79.3056 37.5049 79.2729 37.5377 79.2401C37.6688 79.1419 37.7672 79.0763 37.8 79.0436C37.8655 78.9781 37.8983 78.9126 37.8983 78.9126C37.8983 78.8798 37.9311 78.8143 37.9311 78.7161C37.9311 78.6506 37.9311 78.5523 37.8983 78.3231C37.8655 78.2248 37.8 78.0611 37.6032 77.7991C37.4393 77.5698 37.177 77.3406 36.8491 77.1113C36.3901 76.7838 35.9967 76.3907 35.6361 75.9322C35.3082 75.4737 35.0131 74.9825 34.7836 74.393C34.5541 73.8034 34.4558 73.1484 34.4558 72.4279C34.4558 71.7074 34.6197 70.9869 34.882 70.2664C35.2754 69.2511 35.9312 68.4651 36.718 67.9738C37.4393 67.5153 38.2918 67.3188 39.2753 67.286L40.2261 64.8625C40.2917 64.6659 40.4556 64.5349 40.6196 64.4367C40.8163 64.3384 41.0458 64.3384 41.2425 64.4039L44.7834 65.8122C44.9802 65.8777 45.1441 66.0415 45.2096 66.238C45.308 66.4345 45.308 66.6637 45.2096 66.8602L44.4228 68.7926C44.9146 69.0218 45.3736 69.2511 45.8326 69.5131C45.9965 69.6113 46.1277 69.7751 46.1932 69.9388C46.2588 70.1681 46.2588 70.3646 46.1604 70.5939L44.7507 73.3122C44.6523 73.5087 44.4884 73.6397 44.2589 73.7052C44.0294 73.7707 43.7999 73.7379 43.6031 73.6069C42.7507 73.0174 41.931 72.5917 41.177 72.2641C40.9147 72.1331 40.6524 72.1004 40.4556 72.1004C40.2917 72.1004 40.1606 72.1331 40.0622 72.1659C39.8983 72.2641 39.8327 72.3297 39.7999 72.3624C39.7671 72.3952 39.7344 72.4606 39.7016 72.4934C39.7016 72.5261 39.6688 72.5589 39.6688 72.6571C39.6688 72.6899 39.6688 72.8209 39.7344 73.0502C39.7671 73.1484 39.8327 73.3449 40.0294 73.6069C40.1934 73.8362 40.4556 74.0654 40.7835 74.2947C41.2097 74.6222 41.636 75.0152 41.9638 75.4738C42.3245 75.9323 42.6196 76.4563 42.8163 77.013C43.0458 77.6025 43.1441 78.2576 43.1441 78.9453C43.1441 79.6659 42.9802 80.3536 42.6851 81.0741C42.2589 82.1877 41.636 83.0065 40.8491 83.5305C40.1606 83.989 39.2753 84.2182 38.259 84.1855L37.3409 86.5108C37.2754 86.7073 37.1115 86.8711 36.9147 86.9366C36.8164 86.9038 36.718 86.9366 36.5869 86.9366ZM33.341 84.6112L36.5213 85.8558L37.5049 83.3667C37.5704 83.1702 37.8 83.0392 37.9967 83.0719C38.9475 83.1702 39.7344 83.0064 40.3245 82.6134C40.9475 82.2204 41.4393 81.5327 41.7999 80.6156C42.0294 80.0261 42.1605 79.4038 42.1605 78.8143C42.1605 78.2248 42.095 77.7008 41.8982 77.2423C41.7015 76.751 41.472 76.3253 41.177 75.965C40.8819 75.572 40.554 75.2445 40.1934 74.9825C39.7999 74.7205 39.4721 74.3929 39.2426 74.0982C38.9803 73.7707 38.8163 73.4432 38.7508 73.1484C38.6852 72.8864 38.6852 72.6571 38.6852 72.4934C38.6852 72.2969 38.718 72.1331 38.7835 72.0021C38.8491 71.8384 38.9475 71.7074 39.0459 71.5764C39.1442 71.4454 39.3081 71.3144 39.5049 71.1834C39.7344 71.0196 40.0622 70.9541 40.4229 70.9541C40.7507 70.9541 41.1442 71.0524 41.5048 71.2161C42.2589 71.5436 43.0786 71.9694 43.931 72.5262L45.1441 70.1681C44.6195 69.9061 44.0949 69.6441 43.5375 69.3821C43.308 69.2838 43.1769 68.9891 43.2753 68.7598L44.1605 66.5655L40.9802 65.2882L39.9638 67.8428C39.8983 68.0393 39.7016 68.1703 39.472 68.1375C38.554 68.1048 37.7672 68.2685 37.1442 68.6615C36.4885 69.0546 36.0295 69.6441 35.7016 70.4956C35.4721 71.0851 35.341 71.7074 35.341 72.2969C35.341 72.8864 35.4066 73.4104 35.6033 73.8689C35.8 74.3602 36.0295 74.786 36.3246 75.179C36.6197 75.5392 36.9475 75.8668 37.3082 76.1288C37.7016 76.4235 38.0295 76.7183 38.259 77.013C38.5213 77.3405 38.6852 77.6681 38.718 77.9628C38.7836 78.2248 38.7835 78.4213 38.7835 78.6178C38.7835 78.8143 38.7508 78.9781 38.6852 79.1091C38.6196 79.2401 38.554 79.3711 38.4229 79.5348C38.3245 79.6658 38.1606 79.7969 37.9639 79.9279C37.7344 80.0916 37.4393 80.1571 37.0459 80.1571C36.718 80.1571 36.3246 80.0589 35.9312 79.8951C35.6033 79.7641 35.2754 79.6004 34.9148 79.4039C34.5541 79.2074 34.2918 79.0436 34.0623 78.9126C33.8984 78.8143 33.7345 78.7161 33.6033 78.6178L32.3902 81.0086C32.8492 81.2379 33.3738 81.4999 33.9312 81.7619C34.1607 81.8602 34.2918 82.1549 34.1935 82.3842L33.341 84.6112Z" fill="#272B4F"/>
<path d="M77.9626 117.722C69.5694 114.48 66.094 106.358 69.0776 96.0084C69.0776 96.0084 55.5368 96.9254 54.9467 92.5696C54.1926 86.8382 68.1923 82.1221 74.9791 86.4452" fill="white"/>
<path d="M77.9627 118.869C77.8315 118.869 77.7004 118.836 77.5365 118.803C68.9792 115.495 65.2416 107.307 67.5694 97.2202C63.4711 97.3512 54.4221 97.1547 53.8319 92.7333C53.5368 90.5063 54.8811 88.312 57.6351 86.5762C62.3892 83.5631 70.6185 82.2858 75.6348 85.4954C76.1594 85.8229 76.3233 86.5434 75.9955 87.0674C75.6676 87.5914 74.9463 87.7552 74.4218 87.4277C70.3563 84.8404 62.9793 85.9212 58.881 88.5085C57.7663 89.229 55.8975 90.7028 56.127 92.4386C56.422 94.5674 63.799 95.2224 69.0448 94.8621C69.4054 94.8294 69.7661 94.9932 70.0284 95.2879C70.2579 95.5827 70.3562 95.9757 70.2251 96.3359C67.4383 106.03 70.4874 113.628 78.4217 116.674C79.0118 116.903 79.3069 117.558 79.0774 118.148C78.8479 118.574 78.4217 118.869 77.9627 118.869Z" fill="#272B4F"/>
<path d="M97.0764 185.679C96.4207 185.679 95.9289 185.155 95.9289 184.533C96.6502 123.257 93.6012 93.683 73.6018 80.4191C73.0773 80.0588 72.9461 79.371 73.274 78.8143C73.6346 78.2903 74.3231 78.1593 74.8804 78.4868C85.0768 85.2661 91.1422 95.779 94.5191 112.58C97.601 127.907 98.6829 148.736 98.2239 184.533C98.2239 185.188 97.7322 185.679 97.0764 185.679Z" fill="#272B4F"/>
<path d="M60.9795 155.352C60.8812 155.352 60.8156 155.352 60.7172 155.32C60.0943 155.189 59.7009 154.566 59.832 153.944C61.5041 146.51 63.1106 132.263 63.5696 128.104C57.8976 127.252 51.9961 121.095 51.3404 117.263C51.242 116.641 51.6682 116.051 52.2912 115.953C52.9141 115.855 53.5043 116.281 53.6026 116.903C54.0616 119.719 59.7992 125.909 64.8155 125.909C65.1433 125.909 65.4384 126.04 65.6679 126.302C65.8974 126.532 65.9958 126.859 65.963 127.187C65.8974 127.94 64.0286 145.593 62.0287 154.468C61.9631 154.992 61.5041 155.352 60.9795 155.352Z" fill="#272B4F"/>
<path d="M232.842 147.033C232.514 147.033 232.219 146.902 231.99 146.64L207.99 119.097C207.794 118.868 207.695 118.573 207.695 118.279L211.433 65.1575C211.466 64.7645 211.695 64.437 212.023 64.2405C212.351 64.044 212.777 64.044 213.105 64.2077C216.711 66.0745 222.252 66.2055 225.99 64.4697C228.318 63.3889 229.727 61.7514 230.219 59.5571C230.711 57.3301 229.498 55.5944 228.35 54.5464C225.76 52.1556 220.383 50.3543 214.613 52.0573C213.99 52.2539 213.367 51.8936 213.171 51.2713C212.974 50.6491 213.334 50.0268 213.957 49.8303C219.728 48.1273 226.154 49.339 229.924 52.8433C232.153 54.9066 233.039 57.4611 232.449 60.0484C231.793 62.8977 229.891 65.1575 226.941 66.533C223.072 68.3343 217.728 68.4325 213.597 66.8932L210.023 117.918L233.694 145.101C234.121 145.592 234.055 146.313 233.596 146.706C233.399 146.935 233.104 147.033 232.842 147.033Z" fill="#272B4F"/>
<path d="M224.318 59.9172C224.089 59.9172 223.827 59.8517 223.63 59.6879C223.138 59.3604 219.237 57.7556 215.532 59.1639C214.942 59.3932 214.286 59.0984 214.056 58.5089C213.827 57.9194 214.122 57.2644 214.712 57.0351C219.433 55.2338 224.286 57.2316 225.073 57.8866C225.564 58.2796 225.63 59.0001 225.204 59.4914C224.974 59.7862 224.646 59.9172 224.318 59.9172ZM223.564 59.6552C223.597 59.6552 223.597 59.6552 223.564 59.6552C223.597 59.6552 223.597 59.6552 223.564 59.6552Z" fill="#272B4F"/>
<path d="M172.419 177.164C168.156 177.164 164.55 175.789 161.927 173.103C157.894 168.976 157.075 162.786 157.632 158.365C157.698 157.743 158.288 157.284 158.911 157.383C159.534 157.448 159.993 158.038 159.894 158.66C159.402 162.557 160.091 167.961 163.566 171.531C166.124 174.151 169.73 175.264 174.287 174.806C174.91 174.74 175.468 175.199 175.533 175.821C175.599 176.443 175.14 177 174.517 177.066C173.828 177.131 173.107 177.164 172.419 177.164Z" fill="#272B4F"/>
<path d="M116.059 191.148C115.895 191.148 115.699 191.115 115.535 191.017C114.977 190.722 114.748 190.035 115.043 189.478C120.518 178.932 121.108 177.524 121.862 172.775C122.256 170.286 122.387 167.633 122.551 164.784C123.01 155.876 123.534 145.756 132.452 137.012C132.911 136.586 133.632 136.586 134.059 137.044C134.518 137.503 134.485 138.223 134.026 138.649C125.731 146.771 125.239 156.4 124.813 164.882C124.649 167.764 124.518 170.515 124.092 173.103C123.272 178.31 122.42 180.144 117.043 190.493C116.879 190.919 116.485 191.148 116.059 191.148Z" fill="#272B4F"/>
<path d="M97.1751 167.338C96.9128 167.338 96.6833 167.273 96.4538 167.109C95.962 166.716 95.8637 165.996 96.2571 165.504C115.601 140.942 145.501 110.844 152.518 104.916C153.796 84.4473 155.567 54.2842 155.501 49.6009C154.976 49.4044 154.157 49.1424 153.337 48.8804C140.19 44.5246 131.535 40.791 131.961 36.6317C132.092 35.551 132.256 33.8807 153.763 25.3001C164.091 21.1735 174.517 17.4073 174.615 17.3745C175.205 17.1453 175.861 17.4728 176.091 18.0623C176.32 18.6518 175.992 19.3068 175.402 19.536C156.452 26.3809 136.059 34.7322 134.223 37.0247C134.289 37.5487 135.043 39.1862 141.305 42.0028C145.665 43.9678 150.911 45.7036 154.058 46.7188C156.78 47.6358 157.108 47.7341 157.403 48.0289C157.862 48.4874 157.96 48.5856 157.501 57.985C157.271 62.701 156.911 69.2511 156.452 77.4387C155.665 91.3904 154.78 105.44 154.78 105.571C154.747 105.899 154.616 106.193 154.354 106.39C148.19 111.401 117.699 142.022 98.0603 166.945C97.8636 167.207 97.5357 167.338 97.1751 167.338Z" fill="#272B4F"/>
<path d="M171.303 56.2494C170.746 56.2494 170.254 56.2167 169.762 56.1512C169.14 56.0529 168.713 55.4634 168.812 54.8411C168.91 54.2189 169.5 53.7931 170.123 53.8914C174.877 54.6774 185.434 50.3215 188.615 46.2931C189.008 45.8019 189.729 45.7036 190.221 46.0966C190.713 46.4896 190.811 47.2102 190.418 47.7014C187.041 51.9918 177.205 56.2494 171.303 56.2494Z" fill="#272B4F"/>
<path d="M174.418 52.2209C174.287 52.2209 174.189 52.1882 174.057 52.1554C173.467 51.9589 173.139 51.3039 173.336 50.7144C174.025 48.6183 175.795 46.9153 178.057 46.1621C180.549 45.3105 183.303 45.7363 185.631 47.3083C186.156 47.6686 186.287 48.3891 185.926 48.9131C185.565 49.4371 184.844 49.5681 184.32 49.2079C182.615 48.0288 180.582 47.7341 178.779 48.3236C177.205 48.8476 175.959 50.0266 175.5 51.4349C175.369 51.8934 174.91 52.2209 174.418 52.2209Z" fill="#272B4F"/>
<path d="M181.664 61.3584C179.336 61.3584 176.943 60.5396 175.008 59.0004C174.516 58.6073 174.451 57.8868 174.844 57.3956C175.238 56.9043 175.959 56.8388 176.451 57.2318C178.68 59.0331 181.729 59.5899 184.221 58.6074C186.779 57.6248 188.451 55.1685 188.975 51.5659C189.074 50.9437 189.664 50.5179 190.287 50.6161C190.91 50.7144 191.336 51.3039 191.238 51.9262C190.582 56.3475 188.385 59.4916 185.041 60.7689C183.959 61.1619 182.811 61.3584 181.664 61.3584Z" fill="#272B4F"/>
<path d="M165.894 133.278C165.238 133.278 164.583 133.082 163.927 132.721C159.239 130.101 154.485 118.704 152.747 111.827C152.583 111.204 152.976 110.582 153.567 110.418C154.19 110.255 154.813 110.648 154.976 111.237C156.911 118.835 161.599 128.759 165.042 130.691C165.501 130.953 165.861 131.018 166.156 130.92C167.337 130.56 169.73 129.315 172.779 127.776C179.828 124.174 191.631 118.18 204.581 114.512C205.204 114.348 205.827 114.709 205.991 115.298C206.155 115.92 205.794 116.543 205.204 116.706C192.483 120.309 180.779 126.237 173.828 129.807C170.55 131.477 168.189 132.689 166.845 133.082C166.517 133.245 166.222 133.278 165.894 133.278Z" fill="#272B4F"/>
<path d="M190.876 105.997C195.532 105.408 197.139 112.252 191.401 112.809C186.614 113.3 184.975 106.75 190.876 105.997Z" fill="white"/>
<path d="M190.942 113.988C188.122 113.988 186.221 111.958 185.991 109.829C185.762 107.667 187.139 105.309 190.745 104.851C192.581 104.622 194.253 105.309 195.302 106.718C196.286 108.06 196.515 109.764 195.86 111.205C195.466 112.122 194.352 113.661 191.532 113.956C191.335 113.988 191.139 113.988 190.942 113.988ZM191.007 107.143C189.171 107.373 188.089 108.29 188.253 109.567C188.385 110.713 189.499 111.86 191.303 111.663C192.548 111.532 193.434 111.041 193.761 110.288C194.057 109.6 193.925 108.748 193.434 108.093C193.139 107.667 192.384 106.98 191.007 107.143Z" fill="#272B4F"/>
<path d="M181.663 107.634C186.319 107.045 187.926 113.89 182.188 114.447C177.434 114.938 175.795 108.388 181.663 107.634Z" fill="white"/>
<path d="M181.729 115.626C178.91 115.626 177.008 113.595 176.778 111.466C176.549 109.305 177.926 106.947 181.532 106.488C183.368 106.259 185.041 106.947 186.09 108.355C187.073 109.698 187.303 111.401 186.647 112.842C186.254 113.759 185.139 115.298 182.319 115.593C182.123 115.626 181.926 115.626 181.729 115.626ZM181.828 108.781C179.991 109.01 178.91 109.927 179.073 111.204C179.205 112.35 180.319 113.497 182.123 113.3C183.368 113.169 184.254 112.678 184.582 111.925C184.877 111.237 184.746 110.385 184.254 109.73C183.926 109.305 183.205 108.617 181.828 108.781Z" fill="#272B4F"/>
<path d="M172.353 107.111C176.943 106.456 178.484 114.349 172.877 115.004C168.156 115.528 166.549 107.962 172.353 107.111Z" fill="white"/>
<path d="M172.385 116.183C169.598 116.183 167.828 113.956 167.533 111.696C167.238 109.305 168.549 106.521 172.188 105.997C173.861 105.768 175.434 106.39 176.483 107.733C177.664 109.272 177.959 111.467 177.238 113.203C176.549 114.873 175.041 115.921 173.008 116.15C172.779 116.15 172.582 116.183 172.385 116.183ZM172.877 108.224C172.746 108.224 172.647 108.224 172.516 108.257C170.254 108.585 169.631 110.091 169.795 111.401C169.959 112.777 171.041 114.054 172.746 113.858C173.926 113.727 174.746 113.17 175.106 112.285C175.533 111.303 175.336 109.993 174.647 109.109C174.32 108.716 173.762 108.224 172.877 108.224Z" fill="#272B4F"/>
<path d="M164.713 104.785C169.139 107.242 165.795 114.578 160.484 111.466C156.025 108.846 159.107 101.707 164.713 104.785Z" fill="white"/>
<path d="M163.009 113.366C162.123 113.366 161.074 113.137 159.927 112.449C156.976 110.713 156.681 107.471 157.927 105.309C159.14 103.18 161.894 101.903 165.304 103.803C166.976 104.72 167.927 106.325 167.959 108.159C167.992 110.058 166.976 111.859 165.402 112.776C164.845 113.038 164.025 113.366 163.009 113.366ZM162.091 105.178C161.041 105.178 160.287 105.735 159.894 106.456C159.205 107.667 159.369 109.501 161.074 110.484C162.255 111.172 163.336 111.27 164.222 110.779C165.074 110.287 165.632 109.239 165.632 108.191C165.632 107.602 165.435 106.521 164.189 105.833C163.369 105.375 162.681 105.178 162.091 105.178Z" fill="#272B4F"/>
<path d="M152.845 98.9559C157.402 96.6306 161.599 103.083 155.927 105.768C151.206 108.028 147.042 101.904 152.845 98.9559Z" fill="white"/>
<path d="M153.894 107.406C151.861 107.406 150.124 106.227 149.337 104.655C148.32 102.591 148.845 99.7091 152.32 97.9078C154.091 96.9908 156.025 97.089 157.566 98.1043C159.041 99.0868 159.894 100.757 159.795 102.427C159.73 103.475 159.173 105.441 156.418 106.751C155.566 107.209 154.681 107.406 153.894 107.406ZM154.812 99.6108C154.386 99.6108 153.894 99.7091 153.369 99.9711C151.501 100.921 150.746 102.329 151.402 103.639C151.992 104.818 153.599 105.604 155.435 104.72C156.714 104.098 157.435 103.246 157.5 102.296C157.566 101.445 157.074 100.561 156.287 100.037C155.992 99.8401 155.468 99.6108 154.812 99.6108Z" fill="#272B4F"/>
<path d="M201.007 104.261C206.286 103.606 208.089 111.335 201.597 111.958C196.188 112.482 194.319 105.08 201.007 104.261Z" fill="white"/>
<path d="M201.073 113.104C197.958 113.104 195.86 110.877 195.63 108.519C195.368 106.161 196.909 103.574 200.876 103.082L201.007 104.229L200.876 103.082C202.909 102.82 204.745 103.574 205.892 105.146C206.974 106.619 207.204 108.486 206.515 110.058C206.089 111.041 204.876 112.744 201.729 113.071C201.499 113.104 201.27 113.104 201.073 113.104ZM201.138 105.375C198.975 105.637 197.696 106.75 197.893 108.29C198.057 109.665 199.368 111.008 201.499 110.811C202.975 110.68 203.991 110.091 204.417 109.141C204.778 108.322 204.647 107.307 204.056 106.521C203.663 105.997 202.778 105.178 201.138 105.375Z" fill="#272B4F"/>
<path d="M210.285 103.344C214.974 102.034 217.662 108.552 211.892 110.025C207.072 111.237 204.351 105.015 210.285 103.344Z" fill="white"/>
<path d="M210.679 111.303C208.253 111.303 206.417 109.731 205.892 107.864C205.335 105.768 206.384 103.246 209.99 102.231C211.826 101.707 213.695 102.165 214.974 103.41C216.121 104.556 216.613 106.194 216.187 107.7C215.925 108.65 215.039 110.386 212.187 111.139C211.662 111.237 211.138 111.303 210.679 111.303ZM211.531 104.294C211.236 104.294 210.941 104.327 210.613 104.425C208.744 104.949 207.794 106.03 208.122 107.274C208.417 108.421 209.761 109.371 211.63 108.879C212.908 108.552 213.761 107.897 213.99 107.078C214.187 106.39 213.925 105.604 213.367 105.015C212.876 104.556 212.22 104.294 211.531 104.294Z" fill="#272B4F"/>
<path d="M227.006 10.7591C227.006 10.7591 230.187 2.14569 236.285 2.44045C251.137 3.09546 245.334 20.5187 245.334 20.5187C252.514 17.7349 256.317 24.9072 253.17 29.8853C250.055 34.8633 245.006 33.3896 245.006 33.3896C248.842 36.4026 241.662 45.4417 234.646 45.5727C227.629 45.7037 227.4 42.0684 227.4 42.0684C224.318 44.4265 220.876 43.2802 219.4 40.2999C219.335 50.1578 210.941 57.7231 204.188 52.2538C196.844 46.2932 198.909 31.6538 198.909 31.6538C196.778 32.7346 195.303 30.4093 197.532 28.4115C190.778 32.9638 183.696 28.477 188.188 22.3854C183.729 26.4465 169.664 26.512 167.435 20.0274C166.222 16.4576 169.926 14.6236 169.926 14.6236C169.926 14.6236 163.369 10.7918 165.5 4.96223C167.664 -0.867338 182.418 -0.605343 190.778 9.58003C190.778 9.58003 191.532 5.74825 196.909 7.05826C202.286 8.36828 202.745 17.8004 202.745 17.8004C202.745 17.8004 207.368 15.4096 211.892 19.8637C211.892 19.8637 209.433 14.0341 214.417 9.74378C219.99 4.96222 227.006 10.7591 227.006 10.7591Z" fill="#272B4F"/>
<path d="M209.007 55.2667C207.073 55.2667 205.171 54.5462 203.433 53.1707C197.073 47.9961 197.27 37.1558 197.597 33.0947C196.843 33.0292 196.155 32.669 195.696 32.014C195.466 31.6865 195.335 31.2934 195.27 30.8677C191.827 32.0795 188.68 31.2934 187.008 29.5577C186.057 28.5424 185.401 27.0032 185.696 25.1364C182.188 26.4791 177.336 26.8067 173.27 25.7586C169.664 24.8416 167.205 22.9421 166.353 20.4203C165.467 17.8331 166.648 15.8353 167.959 14.6235C165.533 12.6585 162.812 8.99045 164.451 4.56915C165.271 2.30937 167.566 0.770107 170.844 0.21335C176.287 -0.70366 184.549 1.26137 190.516 7.54944C190.811 7.15644 191.204 6.79617 191.729 6.46866C193.139 5.5844 194.975 5.38791 197.204 5.94467C201.991 7.09093 203.368 13.3463 203.761 16.261C205.237 15.9008 207.597 15.737 210.154 17.1453C210.023 14.6235 210.745 11.414 213.695 8.8922C218.023 5.19141 223.4 7.02543 226.482 9.05595C227.728 6.46867 230.973 1.09761 236.285 1.35961C240.514 1.55612 243.629 3.02988 245.498 5.78091C248.383 9.94021 247.596 15.868 246.907 18.9466C249.596 18.4881 252.055 19.3068 253.661 21.2391C255.759 23.7609 255.923 27.5927 254.087 30.5402C252.12 33.6842 249.268 34.6995 247.038 34.7977C247.235 35.682 247.137 36.6973 246.776 37.778C245.366 41.9701 239.99 46.6861 234.547 46.7844C229.596 46.8499 227.564 45.1796 226.711 43.8368C225.367 44.5246 223.892 44.7211 222.515 44.3936C221.662 44.1971 220.875 43.8041 220.154 43.2801C219.334 48.2909 216.449 52.6794 212.613 54.4807C211.499 54.972 210.253 55.2667 209.007 55.2667ZM198.909 30.5074C199.138 30.5074 199.368 30.5729 199.565 30.7039C199.925 30.9659 200.089 31.359 200.024 31.7847C199.991 31.9157 198.122 45.8674 204.876 51.3367C207.564 53.531 210.089 53.0725 211.728 52.2864C215.499 50.5179 218.187 45.5726 218.187 40.2671C218.187 39.7431 218.548 39.2846 219.072 39.1536C219.597 39.0226 220.121 39.2845 220.351 39.743C220.941 40.9221 221.957 41.7736 223.105 42.0356C224.285 42.2976 225.498 41.9701 226.646 41.0858C227.006 40.8238 227.465 40.7256 227.859 40.9221C228.252 41.1186 228.482 41.4788 228.515 41.9046C228.547 42.1339 229.072 44.4591 234.58 44.3609C238.875 44.2954 243.53 40.2998 244.645 36.9265C245.071 35.682 244.94 34.765 244.252 34.241C243.825 33.9135 243.694 33.2912 243.957 32.8C244.219 32.3087 244.776 32.0795 245.301 32.2105C245.465 32.2432 249.563 33.3567 252.186 29.1974C253.53 27.0687 253.399 24.3504 251.924 22.5491C250.547 20.8788 248.284 20.4858 245.727 21.5011C245.301 21.6648 244.842 21.5666 244.514 21.2718C244.186 20.9771 244.088 20.4858 244.219 20.0928C244.252 19.9946 246.94 11.7415 243.629 6.92718C242.153 4.7984 239.662 3.65214 236.186 3.48839C236.121 3.48839 236.022 3.48839 235.957 3.48839C230.908 3.48839 228.056 10.9882 228.023 11.0865C227.892 11.4467 227.597 11.7087 227.236 11.807C226.875 11.9052 226.482 11.807 226.22 11.5777C225.957 11.3485 219.892 6.43593 215.171 10.497C210.876 14.165 212.876 19.1103 212.941 19.3068C213.138 19.7981 212.974 20.3876 212.515 20.6823C212.056 20.9771 211.466 20.9443 211.072 20.5513C207.237 16.785 203.433 18.6191 203.269 18.6846C202.909 18.8483 202.515 18.8483 202.188 18.6518C201.86 18.4553 201.63 18.0951 201.63 17.7348C201.499 15.344 200.384 8.95771 196.679 8.0407C195.106 7.64769 193.86 7.74593 193.007 8.26993C192.122 8.79394 191.926 9.67821 191.926 9.71096C191.827 10.1367 191.499 10.497 191.073 10.5952C190.647 10.6935 190.188 10.5297 189.926 10.2022C184.483 3.58664 176.418 1.49061 171.238 2.37487C168.812 2.76787 167.139 3.84864 166.615 5.28966C164.812 10.1695 170.484 13.5427 170.549 13.5755C170.91 13.8048 171.139 14.1978 171.107 14.5908C171.074 14.9838 170.844 15.3768 170.484 15.5733C170.189 15.7043 167.697 17.0798 168.549 19.6016C169.369 21.9924 172.221 23.0404 173.861 23.4661C178.615 24.6779 184.942 23.7609 187.434 21.5011C187.86 21.1081 188.549 21.1081 188.975 21.5011C189.401 21.8941 189.467 22.5491 189.139 23.0404C187.729 24.9726 187.565 26.7411 188.68 27.9202C190.122 29.3939 193.466 29.7542 196.876 27.4289C197.368 27.1014 198.056 27.1997 198.417 27.6909C198.778 28.1822 198.712 28.8372 198.253 29.2629C197.466 29.9507 197.466 30.5074 197.565 30.6712C197.663 30.8022 197.958 30.8022 198.352 30.6057C198.548 30.5402 198.712 30.5074 198.909 30.5074Z" fill="#272B4F"/>
</svg>
