<svg width="196" height="190" viewBox="0 0 196 190" fill="none" xmlns="http://www.w3.org/2000/svg">
<path d="M194.204 188.388C192.892 190.812 163.745 174.044 157.68 169.197C157.68 169.197 135.025 175.845 111.747 179.087C107.813 179.644 103.846 180.07 99.9771 180.365C91.6823 181.02 83.781 180.987 77.3549 179.775C70.5355 178.498 64.5685 176.893 59.3555 174.731C44.2413 168.443 35.4219 157.472 29.8155 136.413C29.6844 135.922 29.5533 135.431 29.4221 134.907C27.9468 129.11 26.4714 123.412 25.1272 117.648C19.7175 94.0345 17.0946 69.3735 30.209 34.134C37.0284 15.8266 72.3715 8.163 103.387 3.08669C134.402 -1.98962 147.09 -2.54638 165.844 15.1061C184.597 32.7585 185.679 38.2606 187.941 64.0351C189.909 86.3382 189.351 116.993 187.45 132.352C187.155 134.743 186.827 136.774 186.466 138.346C183.81 149.907 177.975 150.791 178.204 152.003C178.434 153.214 195.548 185.965 194.204 188.388Z" fill="#EB7666"/>
<path d="M79.6828 118.008C88.9284 131.927 98.1412 162.45 100.01 178.858V180.364C91.7152 181.019 83.8138 180.987 77.3878 179.775C70.5684 178.498 64.6013 176.893 59.3884 174.731C59.4867 172.079 59.7818 163.793 59.6835 162.777C59.5851 161.566 57.3557 159.568 55.2902 158.323C53.2246 157.112 53.2574 144.929 55.2902 144.11C55.2902 144.11 53.782 141.817 52.1099 141.719C50.4379 141.653 42.307 140.638 35.9137 136.217C34.1433 136.643 32.0778 136.741 29.8484 136.413C29.5861 136.381 29.3238 136.315 29.0615 136.282C19.2586 134.416 20.4061 127.702 26.2419 126.097C20.8978 124.132 21.3569 119.809 25.16 117.647C25.5207 117.451 25.8813 117.287 26.2747 117.123L25.8813 116.403L30.3074 96.3597C35.2908 93.7724 36.1433 91.5454 50.2412 95.1479C62.7326 98.3575 73.8797 113.816 76.2403 117.287C76.9288 115.912 77.8796 115.322 79.6828 118.008Z" fill="white"/>
<path d="M194.203 188.389C192.892 190.812 163.745 174.044 157.68 169.197C157.68 169.197 135.025 175.845 111.747 179.087L111.911 178.039C114.665 164.874 125.55 142.538 125.55 142.538C125.55 142.538 121.156 134.514 121.156 127.833C121.156 124.689 121.747 123.281 123.812 122.429C122.796 114.602 118.665 99.8643 118.665 99.8643C117.878 98.9145 117.648 97.8992 117.648 97.8992C117.648 97.8992 114.796 102.288 110.731 101.076C106.764 99.897 107.845 95.5412 107.878 95.3447C107.78 95.443 105.747 97.277 104.009 95.9997C102.501 94.919 103.452 90.2684 106.304 87.2881C94.6328 86.6986 93.2886 86.1746 93.5181 84.3733C93.7803 82.3756 105.19 58.828 113.714 48.2169C113.714 48.2169 113.714 48.2169 113.747 48.1842C113.78 48.1514 113.78 48.1187 113.845 48.0859C113.944 47.9877 114.042 47.8239 114.239 47.6274C114.304 47.5292 114.37 47.4637 114.468 47.3654C114.501 47.2999 114.566 47.2672 114.632 47.2017C117.32 44.0249 125.746 34.7238 132.304 34.2325C146.074 33.25 156.04 46.7104 158.827 50.9679C158.827 50.9679 166.04 40.7171 172.106 46.8414C179.187 53.981 164.532 64.4611 164.532 64.4611C164.532 64.4611 168.171 78.0525 175.089 97.1132C175.941 99.504 176.827 101.928 177.646 104.253C182.204 116.993 186.138 128.488 187.449 132.418C187.154 134.809 186.826 136.839 186.466 138.411C183.81 149.972 177.974 150.857 178.204 152.068C178.433 153.215 195.547 185.965 194.203 188.389Z" fill="white"/>
<path d="M118.894 68.1618C118.14 68.0308 117.649 67.3102 117.78 66.5897L118.403 63.1509C118.534 62.3976 119.255 61.9064 119.976 62.0374C120.731 62.1684 121.222 62.8889 121.091 63.6094L120.468 67.0482C120.337 67.7688 119.649 68.2928 118.894 68.1618Z" fill="#272B4F"/>
<path d="M130.107 68.6533C129.353 68.5223 128.861 67.8018 128.993 67.0813L129.615 63.6425C129.747 62.8892 130.468 62.3979 131.189 62.5289C131.943 62.6599 132.435 63.3805 132.304 64.101L131.681 67.5398C131.55 68.2603 130.861 68.7843 130.107 68.6533Z" fill="#272B4F"/>
<path d="M120.37 89.0573H120.337C98.1082 88.1403 94.3706 87.911 92.928 86.208C92.2723 85.422 92.3706 84.505 92.4362 84.2102C92.7313 81.7211 108.698 48.6755 117.518 42.8458C118.042 42.4856 118.764 42.6493 119.091 43.1734C119.452 43.6974 119.288 44.4179 118.764 44.7454C110.895 49.92 95.1247 82.0159 94.6657 84.505C94.6329 84.7015 94.6657 84.7342 94.6657 84.767C95.4525 85.7167 104.305 86.1098 120.403 86.7648C121.026 86.7975 121.518 87.3215 121.518 87.9438C121.485 88.5661 120.993 89.0573 120.37 89.0573Z" fill="#272B4F"/>
<path d="M113.747 48.1843C117.649 53.2607 125.55 53.4899 132.96 47.7585C140.37 42.0271 142.73 60.0728 150.73 57.42C158.73 54.7672 159.615 52.1471 159.615 52.1471C159.615 52.1471 148.632 32.9879 132.304 34.1669C124.403 34.7564 113.747 48.1843 113.747 48.1843Z" fill="#272B4F"/>
<path d="M149.157 58.861C145.583 58.861 143.058 55.3894 140.993 52.5401C139.386 50.3458 137.747 48.0532 136.075 47.824C135.354 47.7257 134.567 47.9877 133.649 48.7083C129.288 52.0816 124.534 53.6536 120.239 53.0969C117.19 52.7039 114.633 51.2628 112.829 48.9048C112.501 48.479 112.501 47.9222 112.829 47.4965C113.288 46.9397 123.878 33.6429 132.206 33.0534C149.091 31.8416 160.14 50.8043 160.599 51.6231C160.763 51.9178 160.796 52.2454 160.697 52.5729C160.533 53.0969 159.222 55.8479 151.091 58.5335C150.402 58.73 149.78 58.861 149.157 58.861ZM135.78 45.4987C135.976 45.4987 136.206 45.4987 136.403 45.5314C139.026 45.8917 140.894 48.4463 142.829 51.1646C145.55 54.8982 147.517 57.289 150.37 56.3392C155.648 54.5707 157.615 52.9004 158.271 52.1471C156.271 49.003 146.206 34.3306 132.403 35.3132C126.108 35.7717 117.583 45.4004 115.256 48.1515C116.633 49.5925 118.436 50.5096 120.567 50.7716C124.239 51.2301 128.37 49.8545 132.272 46.8415C133.419 45.9572 134.632 45.4987 135.78 45.4987Z" fill="#272B4F"/>
<path d="M162.565 58.4678C162.434 58.4678 162.303 58.435 162.172 58.4023C161.581 58.173 161.286 57.518 161.483 56.9285C163.024 52.7036 166.958 49.8215 167.122 49.6905C167.647 49.3303 168.368 49.4285 168.729 49.9525C169.09 50.4765 168.991 51.1971 168.467 51.5573C168.434 51.5901 164.926 54.1774 163.614 57.7145C163.45 58.2058 163.024 58.4678 162.565 58.4678Z" fill="#272B4F"/>
<path d="M107.977 85.9454C103.912 88.5654 102.305 94.7226 104.076 95.9999C105.846 97.2772 107.945 95.3121 107.945 95.3121C107.945 95.3121 106.731 99.8317 110.797 101.044C114.862 102.255 117.715 97.8667 117.715 97.8667C117.715 97.8667 118.862 102.55 123.944 101.273C127.682 100.323 128.764 96.3274 128.764 96.3274C128.764 96.3274 130.928 99.0457 135.321 97.7357C139.714 96.4584 140.108 87.8122 130.042 84.8318C121.911 82.441 110.666 84.1768 107.977 85.9454Z" fill="#272B4F"/>
<path d="M122.174 102.648C121.092 102.648 120.108 102.386 119.256 101.862C118.403 101.338 117.78 100.651 117.354 99.9956C115.977 101.371 113.518 103.074 110.403 102.157C107.649 101.338 106.731 99.2424 106.567 97.3756C105.551 97.7031 104.404 97.7031 103.354 96.917C102.797 96.4913 102.109 95.6398 102.174 93.8385C102.24 91.0874 104.076 87.059 107.322 84.963C110.338 83.0307 121.813 81.1966 130.305 83.7185C136.993 85.7163 139.354 89.9739 139.354 93.3145C139.354 96 137.878 98.1616 135.583 98.8166C132.567 99.7009 130.436 98.9476 129.157 98.1616C128.403 99.6026 126.895 101.666 124.174 102.354C123.485 102.583 122.829 102.648 122.174 102.648ZM117.649 96.7533C117.715 96.7533 117.78 96.7533 117.846 96.7533C118.305 96.8188 118.666 97.1791 118.764 97.6048C118.764 97.6048 119.157 99.1441 120.469 99.8974C121.288 100.389 122.338 100.454 123.616 100.159C126.665 99.3734 127.583 96.0655 127.616 96.0328C127.715 95.607 128.075 95.3123 128.501 95.214C128.928 95.1157 129.354 95.2795 129.616 95.607C129.682 95.6725 131.419 97.6703 134.96 96.655C136.239 96.2948 137.059 94.9847 137.091 93.3472C137.091 90.8254 135.157 87.5503 129.682 85.9455C121.616 83.5547 110.83 85.487 108.6 86.928C106.108 88.5328 104.568 91.7424 104.502 93.9367C104.469 94.7227 104.666 95.0502 104.731 95.083C105.682 95.7708 107.125 94.4935 107.125 94.4935C107.485 94.1332 108.076 94.1005 108.502 94.3625C108.928 94.6245 109.158 95.1485 109.026 95.6398C108.928 96 108.207 99.1441 111.092 99.9956C114.305 100.945 116.666 97.3428 116.698 97.3101C116.928 96.9498 117.289 96.7533 117.649 96.7533Z" fill="#272B4F"/>
<path d="M123.813 123.576C123.255 123.576 122.764 123.15 122.665 122.593C121.682 114.93 117.616 100.356 117.551 100.192C117.387 99.5696 117.747 98.9474 118.338 98.7836C118.96 98.6199 119.583 98.9801 119.747 99.5696C119.911 100.159 123.911 114.471 124.928 122.299C124.993 122.921 124.567 123.511 123.944 123.576C123.911 123.543 123.878 123.576 123.813 123.576Z" fill="#272B4F"/>
<path d="M139.582 143.881C138.435 143.881 137.287 143.849 136.172 143.75C135.549 143.685 135.058 143.128 135.123 142.506C135.189 141.883 135.746 141.392 136.369 141.458C147.451 142.407 160.926 138.379 171.516 130.977C172.041 130.617 172.762 130.748 173.123 131.272C173.483 131.796 173.352 132.517 172.827 132.877C162.86 139.82 150.434 143.881 139.582 143.881Z" fill="#272B4F"/>
<path d="M75.9788 118.041C75.6181 118.041 75.2575 117.877 75.028 117.55C72.0772 113.325 61.5856 99.2419 49.9793 96.2943C38.1762 93.2812 36.1107 94.4602 32.6681 96.3925C32.1107 96.72 31.5206 97.0475 30.8649 97.4078C30.3075 97.7026 29.619 97.4733 29.3239 96.9165C29.0289 96.3598 29.2584 95.672 29.8157 95.3772C30.4387 95.0497 30.996 94.7222 31.5534 94.4275C35.6845 92.0694 38.4385 90.9886 50.5694 94.1C62.9298 97.2768 73.8804 111.884 76.9624 116.272C77.323 116.796 77.1919 117.517 76.6673 117.877C76.4378 117.975 76.2083 118.041 75.9788 118.041Z" fill="#272B4F"/>
<path d="M55.2904 145.257C54.9297 145.257 54.5363 145.06 54.3396 144.733C53.8478 144.012 52.7987 142.899 52.0446 142.866C51.9462 142.866 42.5366 142.277 35.0285 137.004C34.504 136.643 34.3728 135.923 34.7662 135.399C35.1269 134.875 35.8482 134.744 36.3728 135.137C42.2087 139.231 49.9462 140.475 52.1757 140.573C54.3724 140.672 56.0773 143.194 56.274 143.488C56.6346 144.012 56.4707 144.733 55.9461 145.06C55.7166 145.191 55.4871 145.257 55.2904 145.257Z" fill="#272B4F"/>
<path d="M29.9141 125.77C49.6842 127.375 41.2909 138.608 29.0289 136.283C17.4226 134.056 21.1602 125.05 29.9141 125.77Z" fill="white"/>
<path d="M32.3732 137.757C31.2584 137.757 30.0453 137.659 28.7995 137.397C22.2094 136.152 20.2423 132.811 20.6029 130.126C21.0291 127.08 24.6356 124.198 29.9798 124.624C38.7993 125.344 41.6845 127.833 42.5369 129.831C43.1598 131.272 42.8975 132.811 41.7828 134.154C40.2746 136.086 36.8649 137.757 32.3732 137.757ZM28.9634 126.883C25.4881 126.883 23.1275 128.652 22.898 130.453C22.6029 132.549 25.0946 134.383 29.2257 135.169C34.242 136.119 38.4714 134.678 40.0123 132.746C40.5697 132.058 40.7009 131.37 40.4386 130.748C40.1435 130.028 38.4386 127.637 29.8158 126.949C29.5535 126.883 29.2585 126.883 28.9634 126.883Z" fill="#272B4F"/>
<path d="M30.3078 116.436C50.9304 116.371 43.2256 128.292 30.3078 126.982C18.0785 125.737 21.1604 116.469 30.3078 116.436Z" fill="white"/>
<path d="M32.3078 128.226C31.6193 128.226 30.9308 128.194 30.1767 128.128C23.2916 127.44 20.9638 124.296 21.095 121.578C21.2261 118.532 24.5047 115.323 30.2751 115.29C30.3407 115.29 30.4062 115.29 30.4718 115.29C37.652 115.29 42.2421 116.731 43.6847 119.449C44.406 120.792 44.2748 122.298 43.324 123.707C41.8486 125.999 37.8159 128.226 32.3078 128.226ZM30.3079 117.582C26.1768 117.582 23.4883 119.711 23.39 121.676C23.2916 123.772 26.0457 125.41 30.4062 125.836C35.7504 126.36 40.0782 124.46 41.4552 122.429C41.9142 121.742 42.0125 121.087 41.6847 120.53C41.324 119.842 39.3896 117.582 30.5046 117.582C30.439 117.582 30.3734 117.582 30.3079 117.582Z" fill="#272B4F"/>
<path d="M31.23 125.219C39.6581 120.448 42.9155 110.279 38.5056 102.505C34.0957 94.7314 23.6884 92.297 15.2604 97.0677C6.8323 101.838 3.57494 112.008 7.98484 119.782C12.3947 127.555 22.802 129.99 31.23 125.219Z" fill="#8EE6CB"/>
<path d="M28.996 112.44C29.3566 113.456 29.4222 114.34 29.1927 115.126C28.9632 115.912 28.4386 116.6 27.5862 117.189L28.5042 119.809C28.537 119.875 28.537 119.973 28.5042 120.039C28.4714 120.104 28.4058 120.17 28.3403 120.17L24.8649 121.381C24.7993 121.414 24.701 121.414 24.6354 121.381C24.5698 121.349 24.5043 121.283 24.5043 121.218L23.6846 118.892C23.0289 119.089 22.406 119.253 21.8814 119.351C21.8158 119.351 21.7502 119.351 21.6846 119.318C21.6191 119.285 21.5535 119.22 21.5535 119.154L20.865 116.272C20.8322 116.174 20.865 116.109 20.8978 116.043C20.9634 115.978 21.0289 115.945 21.1273 115.912C21.3568 115.879 21.5863 115.847 21.8158 115.814C22.0453 115.781 22.3732 115.716 22.7338 115.617C23.0945 115.552 23.4551 115.454 23.7502 115.323C24.078 115.224 24.3731 115.061 24.5698 114.897C24.7666 114.733 24.8977 114.537 24.9305 114.373C24.9633 114.209 24.9961 114.045 24.9961 113.914C24.9961 113.783 24.996 113.685 24.9633 113.587C24.9305 113.489 24.8649 113.39 24.7993 113.292C24.7338 113.194 24.6026 113.063 24.4387 112.932C24.2748 112.801 24.0125 112.702 23.6846 112.637C23.3568 112.571 22.9633 112.571 22.5371 112.604C22.0453 112.67 21.5535 112.637 21.0617 112.506C20.5699 112.408 20.0781 112.211 19.5863 111.982C19.0945 111.72 18.6683 111.36 18.2421 110.868C17.8486 110.377 17.5208 109.82 17.2913 109.165C16.9634 108.248 16.9306 107.397 17.1929 106.611C17.4552 105.825 17.947 105.137 18.7339 104.515L17.7831 101.829C17.7503 101.764 17.7503 101.665 17.7831 101.6C17.8159 101.534 17.8815 101.469 17.947 101.436L21.4224 100.224C21.4879 100.192 21.5863 100.192 21.6519 100.257C21.7174 100.29 21.783 100.355 21.8158 100.421L22.6354 102.746C23.2584 102.55 23.8813 102.386 24.5371 102.255C24.6026 102.255 24.6682 102.255 24.7665 102.288C24.8321 102.32 24.8977 102.386 24.8977 102.451L25.5862 105.334C25.619 105.399 25.5862 105.497 25.5534 105.563C25.5206 105.628 25.4551 105.694 25.3567 105.694C24.3076 105.825 23.3895 106.021 22.6027 106.283C22.2748 106.382 22.0125 106.513 21.8158 106.709C21.6191 106.873 21.4879 107.069 21.4224 107.233C21.3568 107.397 21.3568 107.561 21.3568 107.692C21.3568 107.823 21.3568 107.921 21.3896 108.019C21.4224 108.117 21.4879 108.183 21.5535 108.314C21.6191 108.412 21.7502 108.543 21.9469 108.674C22.1109 108.805 22.3732 108.903 22.701 108.969C23.0289 109.034 23.4223 109.067 23.8486 109.002C24.3403 108.969 24.8321 109.002 25.3239 109.1C25.8157 109.198 26.3075 109.362 26.7993 109.624C27.2911 109.886 27.7173 110.246 28.1435 110.737C28.4714 111.229 28.7665 111.785 28.996 112.44Z" fill="#272B4F"/>
<path d="M24.7663 121.873C24.6352 121.873 24.5368 121.84 24.4384 121.807C24.2417 121.709 24.1106 121.545 24.045 121.349L23.3893 119.449C22.8975 119.58 22.4057 119.711 21.9795 119.81C21.7828 119.842 21.5861 119.81 21.4221 119.711C21.2582 119.613 21.1271 119.449 21.0615 119.286V119.253L20.3729 116.371C20.3074 116.142 20.3729 115.912 20.5041 115.716C20.6352 115.519 20.832 115.421 21.0615 115.388C21.291 115.356 21.5205 115.323 21.75 115.29C21.9795 115.257 22.2746 115.192 22.6352 115.126C22.9958 115.061 23.3237 114.962 23.586 114.864C23.8811 114.766 24.0778 114.668 24.2417 114.537C24.4057 114.406 24.4384 114.307 24.4712 114.275C24.504 114.111 24.5368 114.013 24.5368 113.947C24.5368 113.849 24.5368 113.816 24.504 113.783C24.504 113.751 24.4712 113.685 24.4057 113.62C24.3729 113.587 24.3073 113.489 24.1106 113.358C24.045 113.292 23.8811 113.227 23.5532 113.161C23.2582 113.096 22.9303 113.096 22.5696 113.128C22.0451 113.194 21.4877 113.161 20.9303 113.03C20.4057 112.932 19.8484 112.735 19.3238 112.441C18.7992 112.146 18.2746 111.753 17.8484 111.229C17.3894 110.705 17.0616 110.083 16.7993 109.362C16.4386 108.347 16.4058 107.364 16.7009 106.48C16.9632 105.694 17.4222 104.973 18.1435 104.384L17.3238 101.993C17.2583 101.797 17.2583 101.6 17.3566 101.404C17.455 101.207 17.6189 101.043 17.8156 100.978L21.291 99.7661C21.4877 99.7006 21.7172 99.7006 21.9139 99.7989C22.1106 99.8971 22.2418 100.061 22.3073 100.257L22.9631 102.157C23.4549 102.026 23.9467 101.895 24.4384 101.797C24.6352 101.764 24.8319 101.797 24.9958 101.895C25.1926 101.993 25.3237 102.19 25.3893 102.386L26.0778 105.268C26.1105 105.498 26.0778 105.694 25.9794 105.891C25.8483 106.087 25.6515 106.218 25.422 106.251C24.4384 106.382 23.5532 106.546 22.7991 106.808C22.5368 106.906 22.3073 107.004 22.1762 107.135C22.0123 107.266 21.9795 107.364 21.9467 107.43C21.8811 107.594 21.8811 107.692 21.8811 107.757C21.8811 107.823 21.8811 107.856 21.9139 107.921C21.9139 107.954 21.9467 107.987 22.0123 108.052C22.045 108.085 22.1106 108.183 22.3073 108.314C22.3729 108.38 22.5369 108.445 22.8647 108.511C23.1598 108.576 23.4877 108.576 23.8483 108.543C24.3729 108.511 24.9302 108.543 25.4548 108.642C26.0122 108.74 26.5368 108.936 27.0613 109.231C27.5859 109.526 28.1105 109.919 28.5367 110.443C28.963 110.967 29.3236 111.589 29.5531 112.31C29.9465 113.39 30.0121 114.406 29.7498 115.29C29.5203 116.076 29.0285 116.797 28.2416 117.419L29.0285 119.711C29.0941 119.908 29.0941 120.104 28.9957 120.301C28.8974 120.497 28.7334 120.628 28.5367 120.694L25.0614 121.906C24.9302 121.873 24.8319 121.873 24.7663 121.873ZM23.6844 118.369C23.8811 118.369 24.0778 118.5 24.1434 118.696L24.8975 120.858L27.9794 119.777L27.1269 117.353C27.0614 117.157 27.1269 116.928 27.2909 116.797C28.045 116.273 28.5367 115.65 28.7007 114.995C28.8974 114.307 28.8318 113.521 28.504 112.604C28.3072 112.015 28.0122 111.491 27.6515 111.065C27.2909 110.639 26.8974 110.312 26.4712 110.083C26.045 109.853 25.586 109.69 25.127 109.591C24.6679 109.493 24.2089 109.46 23.7827 109.493C23.3237 109.526 22.8975 109.526 22.504 109.428C22.1106 109.329 21.7828 109.231 21.5533 109.035C21.3566 108.871 21.1926 108.74 21.0943 108.576C20.9959 108.445 20.8975 108.281 20.8647 108.15C20.7992 107.987 20.7992 107.823 20.7992 107.659C20.7992 107.495 20.832 107.299 20.8976 107.102C20.9631 106.84 21.1598 106.578 21.4221 106.349C21.6844 106.12 22.0123 105.956 22.4057 105.858C23.1598 105.596 24.045 105.399 24.9958 105.301L24.4057 102.812C23.8483 102.943 23.2909 103.074 22.7336 103.238C22.4713 103.303 22.209 103.172 22.1434 102.943L21.3893 100.781L18.2746 101.862L19.1599 104.384C19.2254 104.58 19.1599 104.81 18.9959 104.941C18.3074 105.498 17.8484 106.12 17.6189 106.808C17.3894 107.495 17.4222 108.249 17.7173 109.067C17.914 109.657 18.209 110.181 18.5697 110.607C18.9303 111.032 19.3238 111.36 19.75 111.589C20.209 111.818 20.6353 111.982 21.0943 112.08C21.5533 112.179 21.9795 112.211 22.4057 112.146C22.8975 112.113 23.3237 112.113 23.6844 112.179C24.0778 112.277 24.4057 112.408 24.6352 112.572C24.8319 112.735 24.9958 112.866 25.0942 112.997C25.1925 113.128 25.2909 113.292 25.3237 113.423C25.3565 113.554 25.3893 113.718 25.3893 113.882C25.3893 114.045 25.3565 114.242 25.2909 114.471C25.2253 114.733 25.0286 114.995 24.7663 115.225C24.504 115.454 24.1762 115.618 23.7827 115.749C23.4876 115.847 23.0942 115.945 22.7336 116.043C22.3401 116.142 22.0451 116.174 21.7828 116.24C21.6188 116.273 21.4549 116.305 21.2582 116.305L21.8483 118.794C22.3401 118.696 22.8647 118.532 23.4549 118.369C23.586 118.369 23.6188 118.369 23.6844 118.369ZM25.2581 105.268C25.2253 105.268 25.2253 105.268 25.2581 105.268C25.2253 105.268 25.2253 105.268 25.2581 105.268Z" fill="#272B4F"/>
<path d="M43.9792 99.8641C34.1761 104.875 28.5697 109.788 30.7992 112.964C33.4221 116.698 46.0776 111.065 46.0776 111.065C46.0776 111.065 46.2743 125.41 57.3233 128.685" fill="white"/>
<path d="M57.3233 129.798C57.2249 129.798 57.0938 129.798 56.9954 129.766C47.4874 126.949 45.4546 116.796 45.0284 112.735C41.1596 114.307 32.4384 117.288 29.8483 113.619C29.1926 112.67 28.9959 111.589 29.291 110.41C30.3073 106.283 37.5531 101.862 43.4546 98.8488C44.012 98.5541 44.7005 98.7833 44.9956 99.3401C45.2907 99.8969 45.0612 100.585 44.5038 100.879C33.6843 106.382 31.8483 109.755 31.5532 110.967C31.4221 111.491 31.4876 111.916 31.7827 112.309C33.1925 114.34 40.8973 112.146 45.6513 110.017C46.012 109.853 46.4054 109.886 46.7333 110.082C47.0611 110.279 47.2578 110.639 47.2578 111.032C47.2578 111.163 47.5857 124.558 57.6839 127.571C58.3068 127.768 58.6347 128.39 58.4708 129.012C58.2741 129.471 57.8151 129.798 57.3233 129.798Z" fill="#272B4F"/>
<path d="M100.01 181.118C99.4201 181.118 98.9283 180.692 98.8627 180.103C96.8956 163.04 87.486 131.829 78.6994 118.663C78.1093 117.779 77.7159 117.451 77.5519 117.353C77.2241 117.746 76.7979 119.089 76.6011 119.776L76.5356 119.973C74.3389 127.112 68.6998 139.885 55.7822 145.191C55.4215 145.616 54.8314 147.843 54.897 151.642C54.9625 155.311 55.5855 157.112 55.8805 157.407C57.651 158.455 60.6345 160.747 60.7984 162.712C60.8968 163.957 60.405 172.57 60.3066 174.273C60.2738 174.895 59.7165 175.387 59.0936 175.354C58.4706 175.321 57.9788 174.764 58.0116 174.142C58.2411 170.245 58.6018 163.76 58.5362 162.941C58.4706 162.385 56.9297 160.682 54.7003 159.372C52.0446 157.8 52.6676 148.924 52.7003 148.826C53.0282 144.339 54.1101 143.422 54.8642 143.095C66.9621 138.182 72.2734 126.064 74.3717 119.318L74.4373 119.121C74.9946 117.32 75.6176 115.322 77.2569 115.06C78.7322 114.831 79.9125 116.305 80.6338 117.418C90.4695 132.254 99.3545 164.317 101.158 179.873C101.223 180.496 100.764 181.085 100.141 181.151C100.076 181.118 100.043 181.118 100.01 181.118Z" fill="#272B4F"/>
<path d="M193.679 189.764C188.269 189.764 163.188 174.764 157.451 170.474C153.779 171.522 132.992 177.319 111.911 180.234C111.288 180.332 110.698 179.873 110.633 179.251C110.534 178.629 110.993 178.039 111.616 177.974C134.533 174.797 157.156 168.182 157.385 168.116C157.746 168.018 158.139 168.083 158.434 168.313C164.696 173.323 188.4 186.555 193.122 187.439C192.368 183.509 184.204 166.904 180.565 159.535C177.647 153.608 177.188 152.625 177.122 152.199C176.925 151.184 177.712 150.562 178.565 149.94C180.204 148.695 183.581 146.075 185.417 138.084C185.81 136.381 186.171 134.056 186.499 131.174C186.564 130.551 187.155 130.093 187.778 130.158C188.4 130.224 188.859 130.813 188.794 131.436C188.466 134.383 188.073 136.807 187.646 138.608C185.646 147.385 181.811 150.333 179.974 151.774C179.843 151.872 179.679 152.003 179.548 152.134C180.007 153.149 181.319 155.802 182.663 158.553C194.531 182.624 196.138 187.373 195.285 188.945C195.154 189.175 194.826 189.6 194.171 189.731C193.974 189.731 193.843 189.764 193.679 189.764Z" fill="#EB7666"/>
<path d="M187.614 132.451C187.155 132.451 186.696 132.156 186.532 131.697C186.466 131.534 180.63 115.683 174.007 97.4405C167.155 78.5436 163.483 64.8212 163.418 64.6902C163.286 64.2317 163.483 63.7404 163.844 63.4456C163.942 63.3801 172.368 57.2886 172.86 51.6883C172.991 50.1162 172.466 48.7735 171.286 47.5617C170.106 46.3827 168.86 45.8587 167.45 45.957C163.516 46.2845 159.778 51.459 159.746 51.5245C159.385 52.0485 158.664 52.1795 158.139 51.7865C157.615 51.4263 157.483 50.7058 157.877 50.1817C158.041 49.9197 162.237 44.0574 167.254 43.6317C169.352 43.4679 171.253 44.2212 172.893 45.8915C174.565 47.5945 175.319 49.5922 175.122 51.8193C174.63 57.5178 167.975 63.1181 165.811 64.7557C166.663 67.8342 170.204 80.2466 176.106 96.5563C182.696 114.765 188.564 130.649 188.63 130.813C188.859 131.403 188.532 132.058 187.941 132.287C187.876 132.418 187.745 132.451 187.614 132.451Z" fill="#272B4F"/>
<path d="M111.19 180.299C111.125 180.299 111.026 180.299 110.961 180.267C110.338 180.136 109.944 179.513 110.075 178.924C112.633 166.708 122.501 146.174 124.272 142.538C123.288 140.606 120.01 133.761 120.01 127.833C120.01 121.48 122.632 121.087 130.37 119.842C131.911 119.613 133.648 119.318 135.681 118.958C150.205 116.338 168.565 110.508 176.893 103.336C177.385 102.91 178.106 102.976 178.499 103.467C178.926 103.958 178.86 104.679 178.368 105.072C169.123 113.03 149.779 118.761 136.042 121.218C134.009 121.578 132.239 121.873 130.698 122.102C122.862 123.347 122.272 123.543 122.272 127.833C122.272 134.121 126.501 141.883 126.534 141.981C126.698 142.309 126.731 142.702 126.567 143.029C126.436 143.259 114.993 166.544 112.305 179.415C112.206 179.939 111.747 180.299 111.19 180.299Z" fill="#272B4F"/>
</svg>
