<svg width="202" height="211" viewBox="0 0 202 211" fill="none" xmlns="http://www.w3.org/2000/svg">
<path d="M180.453 146.618C176.42 160.537 169.502 172.917 158.978 182.284C139.012 200.067 105.931 207.076 54.49 193.255C32.6874 213.658 27.6384 210.776 30.2941 206.355C33.7038 200.624 38.9495 185.821 38.9495 185.821C38.4577 185.624 35.1136 182.382 30.5564 176.552C19.0813 161.913 0 131.16 0 92.6458C0 38.8041 35.3431 10.8681 72.2599 2.64771C123.242 -8.71667 165.371 17.7129 177.273 58.7491C181.6 73.716 184.486 90.124 184.977 106.335C185.436 120.287 184.092 134.075 180.453 146.618Z" fill="#B079E7"/>
<path d="M183.928 138.234C187.961 141.607 185.961 145.21 180.453 146.651C178.617 147.142 176.355 147.371 173.83 147.273C173.404 147.24 173.011 147.24 172.617 147.208C166.945 157.295 158.454 155.919 157.208 157.393C156.749 157.917 156.257 159.849 155.765 162.142C154.847 166.53 154.028 172.294 154.028 172.294C156.683 173.375 158.519 177.862 158.946 182.316C138.979 200.099 105.898 207.108 54.4573 193.287C32.6548 213.691 27.6058 210.809 30.2614 206.388C33.6711 200.656 38.9169 185.853 38.9169 185.853C38.4251 185.657 35.0809 182.414 30.5237 176.585C51.5066 132.175 48.7526 95.9533 48.7526 95.9533C27.2451 96.7393 27.4419 76.6633 40.9824 78.7265C35.376 71.194 41.5069 56.8165 56.1622 62.5806C56.1622 62.5806 50.2608 47.8102 64.1947 43.5526C75.8992 39.9829 78.9483 49.5787 87.7021 51.4782C108.259 55.9978 99.1116 45.3212 101.308 45.7142C115.275 48.3014 111.701 59.1418 101.144 64.5784C100.915 64.7094 100.652 64.8076 100.423 64.9386C114.226 80.9208 130.684 108.202 128.455 109.61C126.094 111.117 105.538 105.254 105.538 105.254L102.751 163.321C102.751 163.321 108.095 174.423 112.062 186.181C114.882 172.72 116.652 168.823 120.914 167.284C121.799 166.956 122.586 166.006 123.275 164.565C124.455 162.142 125.439 158.441 126.357 154.511C127.504 149.697 128.619 144.555 129.996 141.116C135.569 127.459 144.192 103.388 168.421 109.217C171.142 106.663 174.814 105.123 178.847 105.123C180.978 105.123 183.043 105.549 184.945 106.335C190.977 108.824 195.436 114.85 195.698 121.892C196.092 129.85 191.01 136.498 183.928 138.234Z" fill="white"/>
<path d="M112.095 187.327C112.029 187.327 111.931 187.327 111.865 187.294C111.242 187.163 110.849 186.574 110.98 185.952C113.701 172.95 115.57 168.004 120.554 166.203C123.767 165.057 126.816 150.647 128.291 143.704C128.52 142.688 128.717 141.706 128.914 140.854C131.176 130.505 137.373 117.209 147.897 110.888C154.454 106.958 161.929 106.139 170.126 108.464C170.749 108.628 171.076 109.283 170.913 109.872C170.749 110.495 170.093 110.822 169.503 110.658C161.929 108.53 155.044 109.25 149.077 112.853C139.176 118.781 133.307 131.455 131.143 141.346C130.947 142.197 130.75 143.18 130.52 144.195C127.898 156.542 125.373 166.891 121.308 168.365C117.603 169.707 115.931 173.408 113.21 186.41C113.111 186.967 112.652 187.327 112.095 187.327Z" fill="#272B4F"/>
<path d="M171.732 140.92C167.372 140.92 163.995 139.381 162.749 137.023C162.257 136.106 161.044 132.831 166.027 129.752C166.552 129.424 167.273 129.588 167.601 130.112C167.929 130.636 167.765 131.357 167.241 131.684C166.191 132.339 163.798 134.075 164.782 135.909C166.159 138.496 172.716 140.036 180.257 136.63C180.847 136.368 181.503 136.63 181.765 137.219C182.027 137.809 181.765 138.464 181.175 138.726C177.83 140.265 174.585 140.92 171.732 140.92Z" fill="#272B4F"/>
<path d="M174.814 148.42C174.486 148.42 174.126 148.42 173.798 148.387C168.782 148.223 165.405 146.487 164.814 143.736C164.355 141.739 165.568 139.708 167.995 138.463C168.552 138.169 169.241 138.398 169.536 138.955C169.831 139.511 169.601 140.199 169.044 140.494C167.601 141.247 166.847 142.295 167.044 143.245C167.339 144.555 169.568 145.963 173.896 146.094C180.29 146.324 184.027 144.293 184.781 142.328C185.437 140.658 183.994 138.987 182.683 137.874C182.191 137.481 182.126 136.728 182.552 136.269C182.945 135.778 183.699 135.712 184.158 136.138C187.765 139.151 187.437 141.837 186.912 143.18C185.666 146.389 180.978 148.42 174.814 148.42Z" fill="#272B4F"/>
<path d="M186.731 137.229C194.751 133.482 198.038 123.578 194.073 115.108C190.107 106.637 180.391 102.808 172.37 106.554C164.35 110.301 161.063 120.205 165.028 128.676C168.994 137.146 178.71 140.975 186.731 137.229Z" fill="#8EE6CB"/>
<path d="M80.7841 92.6456C80.03 92.7111 79.3743 92.1543 79.3087 91.401L79.0136 87.9295C78.948 87.1762 79.5054 86.5212 80.2595 86.4557C81.0136 86.3902 81.6693 86.9469 81.7349 87.7002L82.03 91.1718C82.0955 91.9251 81.5382 92.5801 80.7841 92.6456Z" fill="#272B4F"/>
<path d="M95.9971 90.2879C95.243 90.3534 94.5873 89.7966 94.5217 89.0434L94.2266 85.5718C94.161 84.8185 94.7184 84.1635 95.4725 84.098C96.2266 84.0325 96.8823 84.5893 96.9479 85.3425L97.2429 88.8141C97.2757 89.5674 96.7184 90.2224 95.9971 90.2879Z" fill="#272B4F"/>
<path d="M187.141 123.661C187.469 124.61 187.535 125.429 187.338 126.15C187.141 126.87 186.65 127.525 185.83 128.082L186.682 130.538C186.715 130.604 186.715 130.669 186.682 130.735C186.65 130.8 186.584 130.833 186.519 130.866L183.273 131.979C183.207 132.012 183.142 132.012 183.076 131.979C183.01 131.947 182.978 131.881 182.945 131.816L182.191 129.621C181.568 129.818 181.01 129.949 180.486 130.047C180.42 130.047 180.355 130.047 180.289 130.014C180.224 129.981 180.191 129.916 180.158 129.85L179.502 127.165C179.469 127.067 179.502 127.001 179.535 126.936C179.568 126.87 179.633 126.837 179.732 126.837C179.928 126.805 180.158 126.772 180.387 126.739C180.617 126.706 180.879 126.641 181.24 126.575C181.601 126.51 181.896 126.412 182.191 126.313C182.519 126.215 182.748 126.084 182.945 125.92C183.142 125.757 183.24 125.593 183.305 125.429C183.338 125.265 183.371 125.134 183.371 125.003C183.371 124.905 183.371 124.807 183.338 124.709C183.305 124.61 183.24 124.512 183.174 124.447C183.109 124.348 182.978 124.25 182.814 124.119C182.65 123.988 182.42 123.89 182.125 123.824C181.83 123.759 181.469 123.759 181.076 123.792C180.617 123.824 180.158 123.824 179.699 123.726C179.24 123.628 178.781 123.464 178.322 123.235C177.863 123.006 177.469 122.645 177.076 122.22C176.683 121.761 176.388 121.237 176.191 120.647C175.896 119.796 175.863 119.01 176.092 118.257C176.322 117.536 176.814 116.881 177.535 116.292L176.65 113.77C176.617 113.704 176.617 113.639 176.65 113.573C176.683 113.508 176.715 113.442 176.814 113.442L180.06 112.329C180.125 112.296 180.191 112.296 180.289 112.329C180.355 112.362 180.42 112.427 180.42 112.493L181.174 114.687C181.764 114.523 182.355 114.359 182.945 114.228C183.01 114.228 183.076 114.228 183.141 114.261C183.207 114.294 183.24 114.359 183.273 114.425L183.928 117.11C183.928 117.176 183.928 117.241 183.896 117.34C183.863 117.405 183.797 117.438 183.699 117.471C182.715 117.602 181.863 117.765 181.142 118.027C180.846 118.126 180.584 118.257 180.387 118.42C180.191 118.584 180.092 118.748 180.027 118.912C179.994 119.075 179.961 119.206 179.961 119.337C179.961 119.436 179.961 119.534 179.994 119.632C180.027 119.698 180.06 119.796 180.158 119.894C180.224 119.992 180.355 120.091 180.519 120.222C180.683 120.353 180.912 120.451 181.207 120.516C181.502 120.582 181.863 120.582 182.256 120.549C182.715 120.516 183.174 120.549 183.633 120.647C184.092 120.746 184.551 120.909 185.01 121.139C185.469 121.368 185.863 121.728 186.256 122.154C186.65 122.547 186.945 123.071 187.141 123.661Z" fill="#272B4F"/>
<path d="M183.207 132.503C183.109 132.503 182.977 132.47 182.879 132.438C182.682 132.339 182.551 132.208 182.486 132.012L181.895 130.276C181.436 130.407 181.01 130.505 180.617 130.603C180.42 130.636 180.223 130.603 180.059 130.505C179.895 130.407 179.764 130.276 179.732 130.079V130.047L179.076 127.361C179.01 127.132 179.076 126.903 179.207 126.739C179.338 126.575 179.535 126.444 179.764 126.411C179.961 126.379 180.191 126.346 180.387 126.313C180.617 126.28 180.879 126.215 181.207 126.149C181.535 126.084 181.83 125.986 182.092 125.887C182.354 125.789 182.551 125.691 182.682 125.593C182.846 125.462 182.879 125.363 182.879 125.363C182.912 125.232 182.912 125.134 182.912 125.069C182.912 124.97 182.912 124.938 182.912 124.938C182.912 124.905 182.879 124.872 182.846 124.807C182.813 124.774 182.748 124.708 182.584 124.577C182.518 124.512 182.387 124.446 182.092 124.381C181.83 124.315 181.535 124.315 181.174 124.348C180.682 124.414 180.158 124.381 179.633 124.25C179.141 124.152 178.617 123.955 178.125 123.693C177.633 123.431 177.141 123.038 176.715 122.547C176.289 122.056 175.961 121.466 175.732 120.811C175.404 119.861 175.371 118.944 175.633 118.125C175.863 117.405 176.322 116.75 176.945 116.16L176.191 113.966C176.125 113.77 176.125 113.573 176.223 113.409C176.322 113.213 176.453 113.082 176.682 112.984L179.928 111.87C180.125 111.804 180.322 111.804 180.518 111.903C180.715 112.001 180.846 112.132 180.912 112.329L181.502 114.064C181.961 113.933 182.387 113.835 182.846 113.737C183.043 113.704 183.207 113.737 183.404 113.835C183.6 113.933 183.731 114.13 183.764 114.326L184.42 117.012C184.453 117.241 184.42 117.438 184.322 117.601C184.19 117.798 183.994 117.929 183.764 117.929C182.846 118.027 182.027 118.224 181.338 118.453C181.076 118.518 180.879 118.617 180.748 118.748C180.584 118.879 180.551 118.944 180.551 119.01C180.518 119.173 180.486 119.272 180.486 119.304C180.486 119.37 180.486 119.403 180.518 119.435C180.518 119.435 180.551 119.501 180.584 119.566C180.617 119.599 180.682 119.665 180.846 119.796C180.912 119.861 181.076 119.927 181.338 119.992C181.6 120.058 181.895 120.058 182.256 120.025C182.748 119.992 183.272 120.025 183.764 120.123C184.289 120.221 184.781 120.418 185.272 120.68C185.764 120.942 186.256 121.335 186.649 121.826C187.076 122.318 187.371 122.907 187.6 123.562C187.961 124.577 188.026 125.527 187.797 126.346C187.6 127.066 187.108 127.754 186.42 128.311L187.141 130.407C187.207 130.603 187.207 130.8 187.108 130.996C187.01 131.193 186.879 131.324 186.682 131.39L183.436 132.503C183.371 132.503 183.272 132.503 183.207 132.503ZM182.19 129.162C182.387 129.162 182.584 129.293 182.649 129.49L183.338 131.455L186.158 130.472L185.371 128.245C185.305 128.049 185.371 127.82 185.535 127.689C186.223 127.197 186.682 126.641 186.846 126.018C187.01 125.396 186.977 124.643 186.682 123.824C186.486 123.267 186.223 122.809 185.895 122.383C185.567 121.99 185.207 121.695 184.813 121.466C184.42 121.237 183.994 121.106 183.568 121.007C183.141 120.909 182.715 120.909 182.322 120.942C181.895 120.975 181.469 120.975 181.141 120.909C180.748 120.844 180.453 120.713 180.256 120.549C180.059 120.385 179.895 120.254 179.797 120.123C179.699 119.992 179.633 119.861 179.568 119.73C179.502 119.599 179.502 119.435 179.502 119.272C179.502 119.108 179.535 118.944 179.6 118.715C179.666 118.453 179.863 118.224 180.125 117.994C180.354 117.798 180.682 117.634 181.043 117.503C181.731 117.274 182.551 117.11 183.436 116.979L182.879 114.719C182.387 114.85 181.863 114.981 181.371 115.112C181.109 115.178 180.846 115.047 180.781 114.818L180.092 112.82L177.273 113.802L178.092 116.128C178.158 116.324 178.092 116.553 177.928 116.684C177.273 117.176 176.846 117.765 176.65 118.42C176.453 119.042 176.486 119.73 176.748 120.483C176.945 121.04 177.207 121.499 177.535 121.924C177.863 122.318 178.256 122.645 178.65 122.842C179.043 123.038 179.469 123.202 179.895 123.3C180.322 123.398 180.715 123.398 181.109 123.366C181.568 123.333 181.961 123.333 182.322 123.398C182.715 123.464 183.01 123.595 183.24 123.791C183.436 123.955 183.568 124.086 183.666 124.217C183.764 124.348 183.863 124.479 183.895 124.643C183.928 124.774 183.961 124.938 183.961 125.101C183.961 125.265 183.928 125.429 183.863 125.658C183.797 125.92 183.633 126.149 183.371 126.379C183.141 126.575 182.813 126.739 182.453 126.87C182.158 126.968 181.83 127.066 181.469 127.132C181.109 127.197 180.813 127.263 180.584 127.296C180.42 127.328 180.289 127.328 180.158 127.361L180.715 129.621C181.141 129.523 181.633 129.392 182.158 129.228C182.092 129.162 182.158 129.162 182.19 129.162Z" fill="#272B4F"/>
<path d="M47.7037 90.2552C47.4742 90.2552 47.2446 90.1897 47.0479 90.0587C46.9824 90.026 41.671 86.4561 37.9334 86.2924C37.3104 86.2596 36.8186 85.7356 36.8514 85.1133C36.8842 84.4911 37.4088 83.9998 38.0317 84.0326C42.4251 84.2291 48.0971 88.0282 48.3266 88.1919C48.8512 88.5522 48.9823 89.2727 48.6217 89.7967C48.425 90.0915 48.0643 90.2552 47.7037 90.2552Z" fill="#272B4F"/>
<path d="M101.341 45.7146C115.308 48.3019 111.734 59.1422 101.177 64.5788C90.4232 70.0808 72.4566 67.1988 72.4566 67.1988C72.4566 67.1988 72.1943 74.7969 64.2601 80.6265C56.326 86.456 43.6051 82.1657 41.0478 78.7269C35.4414 71.1943 41.5723 56.817 56.2276 62.5483C56.2276 62.5483 50.3262 47.7778 64.2601 43.5203C75.9646 39.9505 79.0137 49.5464 87.7675 51.4459C108.291 55.9654 99.1442 45.2888 101.341 45.7146Z" fill="#272B4F"/>
<path d="M54.6214 84.6219C48.1626 84.6219 41.9333 81.8381 40.0973 79.3818C36.9498 75.1243 37.0482 68.9017 40.3923 64.5459C43.507 60.4849 48.6544 59.1421 54.4574 60.7469C53.8017 58.0941 53.1788 53.4763 55.146 49.3498C56.7525 46.042 59.6704 43.7167 63.8998 42.4067C71.7356 40.0159 76.0305 43.1599 80.1615 46.173C82.5877 47.9415 84.9154 49.6445 87.9645 50.2995C96.6528 52.199 99.2101 51.1838 99.9641 50.3977C100.62 49.71 100.39 48.5637 100.062 47.2537C99.833 46.3367 99.6035 45.5507 100.194 44.8957C100.358 44.7319 100.784 44.3389 101.538 44.5027C109.505 45.9764 111.242 49.9065 111.57 52.1335C112.259 56.7513 108.259 62.1224 101.669 65.4957C92.1939 70.3427 77.6698 68.9345 73.4076 68.3777C72.9814 70.8995 71.3093 76.6963 64.8833 81.4451C61.867 83.7704 58.195 84.6219 54.6214 84.6219ZM49.8347 62.3844C46.6872 62.3844 44.0316 63.5961 42.2283 65.9542C39.5399 69.4585 39.4416 74.633 41.9661 78.0391C44.2939 81.1503 56.3918 84.9821 63.5719 79.7093C70.9815 74.2728 71.3093 67.2314 71.3093 67.1659C71.3093 66.8384 71.4733 66.5437 71.7356 66.3144C71.9978 66.1179 72.3257 66.0197 72.6535 66.0524C72.8175 66.0852 90.3579 68.8362 100.685 63.5634C106.325 60.6814 109.865 56.1618 109.341 52.5593C108.98 50.0375 106.521 48.138 102.39 47.1227C102.751 48.4982 103.112 50.5288 101.636 52.068C99.6691 54.1313 95.1774 54.2951 87.5055 52.6248C83.9647 51.8388 81.3746 49.9392 78.8501 48.1052C74.8174 45.1577 71.3421 42.6032 64.621 44.6664C61.0474 45.7472 58.5557 47.6795 57.277 50.3977C54.7853 55.6051 57.3098 62.0896 57.3426 62.1551C57.5065 62.5809 57.4082 63.0721 57.0803 63.3996C56.7525 63.7271 56.2607 63.8254 55.8344 63.6616C53.6706 62.7774 51.6707 62.3844 49.8347 62.3844Z" fill="#272B4F"/>
<path d="M115.373 199.019C114.849 199.019 114.357 198.659 114.259 198.102C111.308 183.725 101.898 164.009 101.8 163.812C101.702 163.649 101.669 163.452 101.702 163.256L104.456 105.189C104.488 104.829 104.652 104.502 104.947 104.305C105.243 104.109 105.603 104.043 105.931 104.141C114.718 106.63 125.012 108.956 127.537 108.694C127.209 106.925 124.422 100.932 117.57 90.2224C110.718 79.513 103.046 69.2621 97.0461 62.8103C96.6199 62.3518 96.6527 61.6313 97.1117 61.2055C97.5707 60.7798 98.292 60.8125 98.7182 61.271C104.816 67.8538 112.619 78.2357 119.537 89.0761C122.062 93.0061 130.258 106.139 129.865 109.414C129.766 110.102 129.373 110.462 129.143 110.626C128.52 111.019 127.242 111.838 115.931 109.185C112.226 108.301 108.619 107.351 106.718 106.827L104.029 163.19C105.177 165.614 113.734 184.019 116.554 197.742C116.685 198.364 116.291 198.954 115.668 199.085C115.504 199.019 115.439 199.019 115.373 199.019Z" fill="#272B4F"/>
<path d="M80.9807 157.36C65.8664 157.36 51.2439 153.856 45.0474 147.928C44.5884 147.502 44.5884 146.749 45.0147 146.323C45.4409 145.865 46.1949 145.865 46.6212 146.291C50.4243 149.926 58.1945 152.808 67.9647 154.216C77.9971 155.657 89.1115 155.363 98.4555 153.397C99.0784 153.266 99.6686 153.659 99.7997 154.282C99.9308 154.904 99.5374 155.494 98.9145 155.625C93.2098 156.804 87.046 157.36 80.9807 157.36Z" fill="#272B4F"/>
<path d="M61.5722 174.62C57.3756 174.62 53.0151 169.183 45.9006 159.882C45.5072 159.391 45.6055 158.67 46.1301 158.277C46.6219 157.884 47.3432 157.983 47.7366 158.507C54.2937 167.12 58.851 172.72 61.9328 172.327C64.359 172 72.3915 165.089 76.2602 161.749C77.9651 160.275 79.2109 159.227 79.8667 158.736C83.7354 155.952 87.2762 159.096 90.522 162.895C91.7679 164.369 95.6038 168.823 98.1939 168.266C99.9316 167.873 101.079 165.188 101.702 162.993C101.866 162.371 102.522 162.044 103.112 162.207C103.735 162.371 104.063 163.026 103.899 163.616C102.718 167.742 101.013 169.969 98.6857 170.493C95.1776 171.247 91.5384 167.644 88.7516 164.402C84.2272 159.129 82.5223 159.62 81.1781 160.603C80.6207 160.996 79.2765 162.142 77.7356 163.485C71.1784 169.118 65.0803 174.227 62.1951 174.587C61.9984 174.62 61.8017 174.62 61.5722 174.62Z" fill="#272B4F"/>
<path d="M82.9815 174.653C82.8503 174.653 82.6864 174.653 82.5552 174.62C79.8668 174.129 77.1455 170.657 74.5226 164.271C74.2931 163.681 74.5554 163.026 75.1456 162.764C75.7357 162.535 76.3914 162.797 76.6537 163.386C79.8996 171.214 82.3257 172.229 82.9815 172.36C84.1945 172.589 88.4896 167.841 90.0961 164.86C90.3912 164.303 91.0797 164.074 91.637 164.402C92.1944 164.697 92.4239 165.384 92.0961 165.941C91.5059 167.055 86.5879 174.653 82.9815 174.653Z" fill="#272B4F"/>
<path d="M91.1116 199.838C90.4887 199.838 89.9969 199.347 89.9641 198.757C89.1117 180.58 85.1118 173.768 84.7183 173.113C84.6855 173.081 84.6527 173.048 84.6199 173.015C84.2265 172.524 84.2593 171.803 84.7511 171.41C85.079 171.115 85.5708 171.05 85.9642 171.246C87.0461 171.705 88.5215 175.897 89.1772 178.026C90.3248 181.858 91.8001 188.539 92.2592 198.692C92.2919 199.314 91.8001 199.871 91.1772 199.903C91.1444 199.838 91.1116 199.838 91.1116 199.838Z" fill="#272B4F"/>
<path d="M98.2597 102.831C98.2597 104.927 93.8991 113.147 88.3583 117.667C85.4075 120.058 82.1289 121.4 78.9814 120.189C75.211 118.748 72.916 116.095 71.6373 113.376C69.8013 109.545 70.0308 105.647 71.0471 105.091C74.1618 103.355 98.2597 100.931 98.2597 102.831Z" fill="#272B4F"/>
<path d="M81.4078 121.761C80.4242 121.761 79.5062 121.597 78.5882 121.237C74.0637 119.534 71.7687 116.259 70.5884 113.868C68.654 109.807 68.5884 105.123 70.49 104.075C72.326 103.06 79.2767 102.078 84.6865 101.554C89.1454 101.128 96.9157 100.538 98.6534 101.586C99.1452 101.881 99.4075 102.34 99.4075 102.831C99.4075 105.582 94.5879 114.097 89.0798 118.551C86.4569 120.68 83.8668 121.761 81.4078 121.761ZM71.6703 106.04C71.2769 106.663 71.1129 109.676 72.6539 112.885C73.6375 114.916 75.5719 117.667 79.3751 119.108C81.8013 120.025 84.5553 119.239 87.6372 116.75C92.6535 112.689 96.3584 105.778 97.0141 103.388C93.2765 102.733 74.5227 104.632 71.6703 106.04Z" fill="#272B4F"/>
<path d="M88.3912 117.667C85.4404 120.058 82.1618 121.401 79.0143 120.189C75.2439 118.748 72.9488 116.095 71.6702 113.377C77.8012 111.477 85.5388 111.51 88.3912 117.667Z" fill="white"/>
<path d="M81.4078 121.761C80.4242 121.761 79.5062 121.597 78.5882 121.237C74.0637 119.534 71.7687 116.259 70.5883 113.868C70.4572 113.573 70.4244 113.213 70.5883 112.918C70.7195 112.623 70.9818 112.394 71.3097 112.296C78.0308 110.233 86.293 110.429 89.4404 117.176C89.67 117.667 89.5388 118.224 89.1126 118.551C86.4569 120.68 83.8668 121.761 81.4078 121.761ZM73.3424 114.097C74.4571 115.899 76.326 117.929 79.4079 119.108C81.6373 119.96 84.1619 119.37 86.9159 117.34C84.3258 113.082 78.5226 112.82 73.3424 114.097Z" fill="#272B4F"/>
<path d="M159.077 185.395C158.454 185.395 157.929 184.871 157.929 184.249C157.929 179.271 155.962 174.26 153.634 173.31C153.143 173.114 152.848 172.623 152.913 172.099C153.47 167.972 154.946 158.245 156.323 156.607C156.913 155.92 157.929 155.69 159.339 155.363C162.454 154.675 167.7 153.496 171.601 146.586C171.896 146.029 172.618 145.832 173.175 146.16C173.732 146.455 173.929 147.175 173.601 147.732C169.208 155.527 163.11 156.902 159.831 157.623C159.142 157.786 158.29 157.983 158.028 158.114C157.372 159.097 156.093 165.679 155.241 171.607C158.454 173.638 160.159 179.435 160.159 184.216C160.224 184.871 159.7 185.395 159.077 185.395Z" fill="#272B4F"/>
<path d="M155.438 163.256C151.799 163.256 135.307 161.192 126.357 155.821C125.799 155.494 125.635 154.806 125.963 154.249C126.291 153.692 126.98 153.529 127.537 153.856C136.75 159.391 154.192 161.127 155.7 160.963C156.323 160.898 156.881 161.356 156.946 161.978C157.012 162.601 156.553 163.157 155.93 163.223C155.766 163.256 155.635 163.256 155.438 163.256Z" fill="#272B4F"/>
<path d="M154.061 173.408C154.028 173.408 153.996 173.408 153.996 173.408C134.422 172.065 125.373 167.218 123.045 165.777C122.521 165.45 122.357 164.729 122.685 164.205C123.013 163.681 123.734 163.517 124.258 163.845C125.832 164.827 134.586 169.773 154.127 171.116C154.75 171.148 155.241 171.705 155.176 172.327C155.176 172.95 154.651 173.408 154.061 173.408Z" fill="#272B4F"/>
<path d="M156.291 114.523C168.323 116.324 175.143 119.468 174.618 122.776C174.093 126.084 167.897 127.623 157.274 125.822C157.274 125.822 160.684 145.407 148.028 145.996" fill="white"/>
<path d="M148.028 147.175C147.405 147.175 146.914 146.684 146.881 146.095C146.848 145.472 147.34 144.916 147.963 144.883C150.455 144.752 152.356 143.835 153.766 142.099C157.963 136.859 156.159 126.149 156.159 126.051C156.094 125.691 156.225 125.298 156.487 125.036C156.749 124.774 157.11 124.643 157.504 124.708C164.585 125.92 170.225 125.625 172.552 123.988C173.11 123.595 173.438 123.136 173.503 122.612C173.569 122.252 173.438 121.892 173.143 121.499C171.471 119.206 165.11 117.012 156.127 115.669C155.504 115.571 155.077 114.981 155.176 114.359C155.274 113.737 155.864 113.311 156.487 113.409C162.192 114.261 172.159 116.259 175.011 120.156C175.667 121.04 175.929 122.023 175.766 123.005C175.569 124.119 174.946 125.101 173.864 125.855C171.143 127.787 165.799 128.278 158.651 127.23C159.012 130.636 159.438 138.759 155.602 143.54C153.799 145.8 151.274 147.045 148.127 147.208C148.061 147.176 148.028 147.175 148.028 147.175Z" fill="#272B4F"/>
<path d="M31.1795 210.711C30.4582 210.711 29.8353 210.548 29.3435 210.155C28.2287 209.27 28.1959 207.633 29.3107 205.799C32.1959 200.952 36.4909 189.358 37.6056 186.247C35.9007 184.773 32.6877 181.17 29.6713 177.306C29.2779 176.814 29.3763 176.094 29.8681 175.701C30.3598 175.308 31.0811 175.406 31.4746 175.897C35.9991 181.661 38.9826 184.511 39.4744 184.838C39.999 185.1 40.2285 185.69 40.0318 186.247C39.8023 186.869 34.6876 201.214 31.2779 206.978C30.7861 207.797 30.7861 208.255 30.8189 208.386C31.1139 208.484 35.6384 209.401 53.7364 192.469C54.0315 192.207 54.425 192.109 54.8184 192.207C61.474 193.976 67.9657 195.45 74.1295 196.596C74.7524 196.694 75.1787 197.316 75.0475 197.939C74.9164 198.561 74.3262 198.987 73.7033 198.856C67.6706 197.742 61.3101 196.334 54.8184 194.598C47.8021 201.083 36.5564 210.711 31.1795 210.711ZM39.3761 184.773C39.4089 184.773 39.4088 184.805 39.4416 184.805C39.4088 184.805 39.4089 184.773 39.3761 184.773Z" fill="#B079E7"/>
<path d="M30.2942 178.288C30.1303 178.288 29.9664 178.255 29.8025 178.189C29.2451 177.927 28.9828 177.24 29.2451 176.65C48.1625 136.989 47.933 103.453 47.6707 97.0994C47.6707 97.0994 47.6379 97.0994 47.6051 97.0994C39.8677 97.0994 33.8679 94.2829 31.4417 89.5013C29.868 86.39 30.0975 82.9513 32.0647 80.495C34.2613 77.7439 38.0973 76.7942 42.5889 77.8749C43.2118 78.0387 43.5725 78.661 43.4413 79.2505C43.2774 79.8727 42.6545 80.233 42.0643 80.102C38.4907 79.2177 35.5072 79.8727 33.9007 81.9032C32.5237 83.639 32.3597 86.1608 33.54 88.4533C35.6711 92.6781 41.3758 95.0361 48.7526 94.7741C49.3756 94.7414 49.9001 95.2326 49.9329 95.8221C49.9657 96.2152 50.6214 105.254 48.6543 119.926C46.8511 133.452 42.3922 154.413 31.3106 177.633C31.1139 178.058 30.7205 178.288 30.2942 178.288Z" fill="#272B4F"/>
<path d="M73.8994 198.823C73.8338 198.823 73.7682 198.823 73.7026 198.823C73.0797 198.725 72.6535 198.135 72.7518 197.513C72.883 196.694 75.9977 177.666 79.2435 171.41C79.5386 170.854 80.2271 170.624 80.7845 170.919C81.3419 171.214 81.5714 171.902 81.2763 172.458C78.1944 178.419 75.0469 197.709 75.0141 197.873C74.9485 198.43 74.4567 198.823 73.8994 198.823Z" fill="#272B4F"/>
</svg>
