<svg width="203" height="270" viewBox="0 0 203 270" fill="none" xmlns="http://www.w3.org/2000/svg">
<path d="M139.751 90.6634C128.673 85.9566 117.543 81.3373 106.43 76.6888C99.5977 73.851 92.6261 71.3438 86.0727 67.9424C84.2783 67.0055 82.7158 65.5177 80.631 65.1964L80.6608 65.2129C78.7597 64.2557 76.9104 63.1136 74.9105 62.354C67.3673 59.4133 59.7064 55.8442 52.2801 53.4344C51.9777 53.3443 51.6963 52.9553 51.275 52.7993C49.2691 52.0169 42.078 49.4462 37.5486 47.5557C27.0774 43.2241 27.0238 41.8989 15.8281 39.3014C14.0738 38.8916 4.48078 34.3133 2.37644 39.3013C0.173244 44.4869 7.54735 51.7373 10.4773 52.6632C17.6186 54.9538 14.645 53.6682 21.1354 57.3065C30.6333 62.6321 41.0245 65.9096 50.9747 70.1852C59.9215 74.0208 69.0888 77.3574 77.9945 81.2284C86.36 84.8776 94.372 89.3791 102.877 92.6977C110.224 95.5686 118.099 97.1983 125.638 99.6512C127.412 100.227 129.095 101.976 131.017 102.634C132.607 103.186 135.23 104.194 136.976 104.386C137.734 104.476 138.527 104.508 139.099 104.942C141.742 106.971 166.669 115.397 169.113 109.316C171.5 103.397 149.374 94.7576 139.751 90.6634Z" fill="#8EE6CB"/>
<path d="M133.164 136.498C126.413 135.569 119.656 134.715 112.906 133.884C108.767 133.356 104.578 133.207 100.505 132.074C99.384 131.763 98.3589 130.865 97.1375 131.216L97.1611 131.21C95.9933 130.912 94.8299 130.442 93.6105 130.328C89.0526 129.936 84.3541 129.02 79.9184 129.084C79.741 129.083 79.5435 128.818 79.283 128.79C78.0696 128.7 73.7503 128.537 71.0029 128.198C64.6495 127.431 58.2856 126.815 51.7235 127.913C50.7076 128.087 36.5665 128.283 35.9438 133.608C35.3053 139.156 48.5098 142.169 50.266 142.114C54.5181 142.025 58.8877 141.148 62.9452 142.505C68.8715 144.51 75.0512 144.345 81.1274 145.21C86.576 145.999 92.0789 146.235 97.5161 147.076C102.633 147.856 107.616 149.552 112.772 150.003C117.2 150.381 121.806 149.44 126.312 149.357C127.371 149.343 128.504 150.457 129.669 150.462C130.634 150.473 132.208 150.588 133.199 150.225C133.635 150.059 134.083 149.842 134.451 150.085C136.158 151.168 151.076 151.228 151.742 144.743C152.38 138.437 138.997 137.306 133.164 136.498Z" fill="#8EE6CB"/>
<path d="M117.642 181.01C112.787 181.113 107.944 181.262 103.107 181.434C100.127 181.548 97.1849 181.994 94.1936 181.5C93.3702 181.354 92.5181 180.629 91.7241 181.159L91.7477 181.153C90.8771 181.02 89.9934 180.743 89.1541 180.822C85.9151 181.103 82.4945 180.895 79.4249 181.62C79.3069 181.651 79.1155 181.409 78.9442 181.431C78.0813 181.515 75.045 181.987 73.0702 182.076C68.5112 182.246 63.9775 182.606 59.5647 184.644C58.8634 184.954 49.0288 187.247 49.3703 192.581C49.7432 198.128 59.3992 199.134 60.6092 198.834C63.5782 198.112 66.4872 196.599 69.5221 197.35C73.9618 198.434 78.2527 197.357 82.6176 197.312C86.5331 197.289 90.42 196.688 94.3478 196.711C98.0211 196.729 101.761 197.657 105.42 197.337C108.582 197.052 111.644 195.449 114.785 194.706C115.522 194.532 116.477 195.45 117.298 195.303C117.971 195.172 119.082 195.07 119.728 194.554C119.998 194.335 120.28 194.064 120.577 194.229C121.933 195.039 132.36 192.881 131.867 186.413C131.363 180.095 121.847 180.934 117.642 181.01Z" fill="#8EE6CB"/>
<path d="M141.945 232.702C138.702 233.156 135.477 233.677 132.258 234.222C130.273 234.558 128.374 235.214 126.278 234.945C125.703 234.879 124.994 234.213 124.543 234.798C123.946 234.738 123.305 234.519 122.738 234.671C120.602 235.195 118.266 235.258 116.339 236.19C116.275 236.232 116.09 236.012 115.972 236.044C115.405 236.196 113.441 236.893 112.136 237.121C109.112 237.638 106.107 238.321 103.495 240.658C103.084 241.013 96.8516 244.003 98.0437 249.207C99.2673 254.623 105.942 254.888 106.701 254.513C108.551 253.578 110.269 251.871 112.433 252.391C115.615 253.127 118.307 251.746 121.22 251.381C123.837 251.046 126.367 250.197 128.997 249.908C131.479 249.634 134.158 250.285 136.554 249.692C138.62 249.187 140.409 247.364 142.382 246.419C142.854 246.195 143.659 247.031 144.16 246.823C144.596 246.657 145.322 246.438 145.661 245.908C145.801 245.675 145.946 245.367 146.19 245.521C147.237 246.219 153.872 243.316 152.41 237.011C151.008 230.738 144.769 232.288 141.945 232.702Z" fill="#8EE6CB"/>
</svg>
