<svg width="200" height="200" viewBox="0 0 200 200" fill="none" xmlns="http://www.w3.org/2000/svg">
<circle cx="100" cy="100" r="100" fill="#C79BED"/>
<path d="M151.746 13.6216C147.115 10.2037 144.105 8.71191 137.827 6.98438L34.0969 151.344L23.4919 164.951C27.7704 169.659 30.3706 171.935 35.4225 175.238L45.3647 162.959L142.798 26.8961L151.746 13.6216Z" fill="#B079E7"/>
<path d="M57.4284 187.937C51.6548 185.996 48.5124 184.434 43.1748 180.319L149.579 32.5998L160.187 19.6826C164.831 23.7657 167.2 26.3225 170.794 31.6061L160.187 43.8608L68.0357 174.357L57.4284 187.937Z" fill="#B079E7"/>
<circle cx="100.318" cy="105.397" r="78.7302" fill="#DBBBF2"/>
<path d="M21.5936 97.3321C21.4769 111.165 23.0455 118.222 27.8394 129.955C45.563 130.558 55.5432 129.916 73.4331 126.787C84.6543 123.941 90.663 122.132 100.914 118.553C112.211 115.754 117.939 113.651 126.834 108.734C137.528 104.681 140.887 102.461 151.505 95.115C162.122 87.7685 167.567 84.5554 175.238 76.7451L168.056 60.9089C162.661 51.203 158.928 46.5384 151.505 39.055C142.569 30.8325 137.089 27.6766 126.834 23.5356C116.382 19.6427 110.173 19.5522 99.0406 19.7349C87.7453 20.4776 81.8265 21.716 71.8717 25.1192C61.7377 28.9667 56.8566 32.1608 49.0748 39.055C39.8949 47.058 35.9618 52.2943 30.3377 62.4925C23.6914 75.5435 22.0021 83.2103 21.5936 97.3321Z" fill="#EEDDF9"/>
<path d="M109.564 57.4512C104.723 54.5412 98.6669 54.5412 93.8259 57.4512L90.3255 59.5553C81.8323 64.6606 72.2976 67.7934 62.4272 68.7217L60.2219 68.9291C55.8688 69.3386 52.5422 72.9869 52.5422 77.3518V88.4775C52.5422 107.283 60.1903 125.283 73.7343 138.354L95.8046 159.652C99.0894 162.822 104.3 162.822 107.585 159.652L129.655 138.354C143.199 125.283 150.847 107.283 150.847 88.4775V77.3518C150.847 72.9869 147.521 69.3386 143.168 68.9291L140.962 68.7217C131.092 67.7934 121.557 64.6606 113.064 59.5553L109.564 57.4512Z" fill="#B079E7"/>
<path d="M102.825 79.1438C96.3893 79.1438 91.1723 84.4001 91.1723 90.8841C91.1723 97.3681 96.3893 102.624 102.825 102.624C109.26 102.624 114.477 97.3681 114.477 90.8841C114.477 84.4001 109.26 79.1438 102.825 79.1438Z" fill="#EEDDF9"/>
<path d="M90.3955 108.886C83.9599 108.886 78.7429 114.142 78.7429 120.626V124.347C78.7429 126.705 80.4392 128.715 82.7491 129.095C96.0449 131.282 109.605 131.282 122.901 129.095C125.211 128.715 126.907 126.705 126.907 124.347V120.626C126.907 114.142 121.69 108.886 115.254 108.886H114.195C113.622 108.886 113.052 108.977 112.507 109.157L109.818 110.041C105.274 111.536 100.376 111.536 95.832 110.041L93.1426 109.157C92.5976 108.977 92.0279 108.886 91.4547 108.886H90.3955Z" fill="#EEDDF9"/>
</svg>
